<?xml version="1.0" encoding="UTF-8" standalone="no"?>
<svg width="118px" height="29px" viewBox="0 0 118 29" version="1.1" xmlns="http://www.w3.org/2000/svg" xmlns:xlink="http://www.w3.org/1999/xlink">
    <!-- Generator: sketchtool 3.7.1 (28215) - http://www.bohemiancoding.com/sketch -->
    <title>56CA8282-0422-4688-8AF6-BEA8DE3DB23E</title>
    <desc>Created with sketchtool.</desc>
    <defs></defs>
    <g id="Page-1" stroke="none" stroke-width="1" fill="none" fill-rule="evenodd">
        <g id="Menu-All" transform="translate(-578.000000, -2369.000000)" fill="#B4C2CD">
            <g id="Logo-Section" transform="translate(373.000000, 2247.000000)">
                <g id="Logos-Clients" transform="translate(0.000000, 122.000000)">
                    <g id="Adobe" transform="translate(205.008403, 0.000000)">
                        <g id="Layer_1" transform="translate(0.000000, 0.000000)">
                            <g id="Group-2" transform="translate(42.745370, 2.144055)">
                                <path d="M9.49690055,15.1143748 L8.61757799,10.0521394 C8.36675601,8.593041 8.04618095,6.31271682 7.80186445,4.73313921 L7.7064509,4.73313921 C7.44948488,6.32465937 7.09059984,8.66961381 6.82712834,10.0644332 L5.88094401,15.1143748 L9.49690055,15.1143748 L9.49690055,15.1143748 Z M5.40857467,18.4129768 L4.26578061,24.0308919 L0.0440926235,24.0308919 L5.31026981,0.658271546 L10.4842862,0.658271546 L15.2679744,24.0308919 L11.0242401,24.0308919 L9.9067451,18.4129768 L5.40857467,18.4129768 L5.40857467,18.4129768 Z" id="Shape"></path>
                                <path d="M24.8769136,13.5906461 C24.8769136,13.2790861 24.8769136,12.9148384 24.8133046,12.5815008 C24.6452466,11.4276399 24.0134933,10.388287 22.9975559,10.388287 C21.254813,10.388287 20.6136629,12.8284306 20.6136629,15.6823483 C20.6136629,18.9616315 21.5276813,20.8281815 22.9371996,20.8281815 C23.5816024,20.8281815 24.3243101,20.5071377 24.7276492,19.1309347 C24.8259541,18.8566073 24.8769136,18.4895496 24.8769136,18.0606716 L24.8769136,13.5906461 L24.8769136,13.5906461 Z M29.2099174,0.0379615474 L29.2099174,19.1839737 C29.2099174,20.7013798 29.2894287,22.568281 29.3530377,24.0273794 L25.6105859,24.0273794 L25.3662694,22.0803928 L25.2773614,22.0803928 C24.6488608,23.2809702 23.2809052,24.3017068 21.645864,24.3017068 C18.0620734,24.3017068 16.2846347,20.4579625 16.2846347,15.6047217 C16.2846347,9.69105293 18.9348905,6.81535759 21.8236801,6.81535759 C23.334756,6.81535759 24.3123835,7.53436924 24.8046306,8.57442468 L24.8776364,8.57442468 L24.8776364,0.0379615474 L29.2099174,0.0379615474 L29.2099174,0.0379615474 Z" id="Shape"></path>
                                <path d="M38.2344486,21.07195 C39.8882834,21.07195 40.2977665,18.0424066 40.2977665,15.5341202 C40.2977665,13.1494744 39.8882834,10.0423043 38.1618042,10.0423043 C36.3330446,10.0423043 35.9488605,13.1494744 35.9488605,15.5341202 C35.9488605,18.4126256 36.4313494,21.07195 38.1961386,21.07195 L38.2344486,21.07195 L38.2344486,21.07195 Z M38.152046,24.302058 C34.1587723,24.302058 31.6541667,21.1861067 31.6541667,15.6085855 C31.6541667,9.52139849 34.8696755,6.81570885 38.2536036,6.81570885 C42.1930265,6.81570885 44.6625748,10.0834008 44.6625748,15.5098839 C44.6625748,22.4822244 40.7932664,24.302058 38.1871033,24.302058 L38.152046,24.302058 L38.152046,24.302058 Z" id="Shape"></path>
                                <path d="M51.4177816,17.9805863 C51.4177816,18.4031418 51.4972929,18.7982996 51.5894537,19.0631432 C52.0242359,20.4797401 52.7607996,20.8281815 53.3509902,20.8281815 C55.0272327,20.8281815 55.70344,18.763877 55.70344,15.4628162 C55.70344,12.4578603 54.9889227,10.388287 53.3318352,10.388287 C52.5099776,10.388287 51.817868,11.2555267 51.5796955,12.1870455 C51.4969315,12.4799892 51.4177816,12.9362647 51.4177816,13.250986 L51.4177816,17.9805863 L51.4177816,17.9805863 Z M47.0844164,0.0379615474 L51.4174202,0.0379615474 L51.4174202,8.86104583 L51.4871733,8.86104583 C52.3408354,7.55895684 53.4774854,6.81535759 55.1280675,6.81535759 C58.3945357,6.81535759 60.035721,10.4251684 60.035721,15.1452849 C60.035721,21.1091827 57.588219,24.3017068 54.4168028,24.3017068 C52.9057269,24.3017068 51.8995477,23.6504866 50.9916734,22.0006588 L50.9002354,22.0006588 L50.6591716,24.0273794 L46.9387662,24.0273794 C47.0023752,22.6237788 47.0844164,20.7013798 47.0844164,19.1839737 L47.0844164,0.0379615474 L47.0844164,0.0379615474 Z" id="Shape"></path>
                                <path d="M70.4195338,13.9454101 C70.4419416,11.5670867 69.7241715,9.90039877 68.3497104,9.90039877 C66.781531,9.90039877 66.1147204,12.1315478 66.0673751,13.9454101 L70.4195338,13.9454101 L70.4195338,13.9454101 Z M66.0514728,16.9229683 C66.1024323,19.9862319 67.7595198,20.9830834 69.8163323,20.9830834 C71.1206788,20.9830834 72.2381739,20.701731 73.0636456,20.4000061 L73.6476921,23.4295495 C72.4983926,23.9104127 70.7238452,24.2128402 69.0223037,24.2128402 C64.3719775,24.2128402 61.8323147,21.1242865 61.8323147,15.8491927 C61.8323147,10.1880737 64.7782079,6.78795998 68.62547,6.78795998 C72.3426228,6.78795998 74.402688,9.79291584 74.402688,14.6981418 C74.402688,15.8210926 74.3549812,16.4536964 74.2787226,16.9468534 L66.0514728,16.9229683 L66.0514728,16.9229683 Z" id="Shape"></path>
                            </g>
                            <path d="M20.8813519,0 L33.1276615,0 L33.1276615,28.9447409 L20.8813519,0 Z M12.2533354,0 L1.11466392e-13,0 L1.11466392e-13,28.9447409 L12.2533354,0 Z M16.5687808,10.6653453 L24.3706256,28.9431644 L19.2587087,28.9431644 L16.9248617,23.1211748 L11.2127169,23.1211748 L16.5687808,10.6653453 Z" id="Combined-Shape"></path>
                        </g>
                    </g>
                </g>
            </g>
        </g>
    </g>
</svg>