<?xml version="1.0" encoding="UTF-8"?>
<svg width="71px" height="21px" viewBox="0 0 71 21" version="1.1" xmlns="http://www.w3.org/2000/svg" xmlns:xlink="http://www.w3.org/1999/xlink">
    <!-- Generator: sketchtool 40.1 (33804) - http://www.bohemiancoding.com/sketch -->
    <title>B732099A-A558-41E8-9367-920AB7C0C130</title>
    <desc>Created with sketchtool.</desc>
    <defs>
        <linearGradient x1="50%" y1="4.56287397%" x2="50%" y2="94.867232%" id="linearGradient-1">
            <stop stop-color="#C3CDD5" offset="0%"></stop>
            <stop stop-color="#C3CDD5" stop-opacity="0.9" offset="100%"></stop>
        </linearGradient>
    </defs>
    <g id="Mention-v4" stroke="none" stroke-width="1" fill="none" fill-rule="evenodd">
        <g id="Mention.com-V5" transform="translate(-514.000000, -730.000000)" fill="url(#linearGradient-1)">
            <g id="Group-3" transform="translate(0.000000, 700.000000)">
                <g id="Group" transform="translate(234.000000, 22.000000)">
                    <path d="M348.655148,18.8953755 C347.746382,17.9557817 346.559353,17.3537995 345.347339,16.9349203 C343.714011,16.3535058 341.965066,16.2200664 340.343986,15.6010281 C339.812933,15.3948492 339.284821,15.1239572 338.899269,14.6875202 C338.385363,14.1066074 338.274646,13.2116606 338.583283,12.5028266 C338.780713,12.049835 339.165285,11.7041969 339.598357,11.4945065 C340.316061,11.1503733 341.131256,11.0992048 341.911177,11.160908 C342.705306,11.2211062 343.511682,11.4874833 344.104462,12.04833 C344.618368,12.523896 344.941212,13.186578 345.072015,13.8773525 C345.092101,14.0569439 345.217516,14.2485749 345.414946,14.231017 C346.686238,14.24406 347.95655,14.2641261 349.228331,14.2616178 C349.409105,14.2856971 349.582529,14.1276768 349.5306,13.9350425 C349.385099,12.8971249 349.030901,11.8802767 348.451349,11.0114158 C347.751771,9.95242882 346.703384,9.16583879 345.548199,8.69729601 C344.481195,8.25534077 343.331889,8.06671969 342.187481,8.0010033 L340.872098,8.0010033 C339.465594,8.07725438 338.038024,8.28644318 336.745176,8.88792369 C335.801628,9.32135085 334.941853,9.99757748 334.401982,10.9110854 C333.87093,11.7824546 333.664192,12.8203722 333.652924,13.8372204 C332.969023,12.4055061 331.942682,11.1543865 330.716951,10.1761655 C329.086072,8.8618378 327.049065,8.11487826 324.980216,8.0010033 L323.904884,8.0010033 C322.483193,8.08879237 321.079138,8.48409399 319.823033,9.17236026 C317.979047,10.1816837 316.436841,11.7603819 315.459979,13.6536158 C315.298312,12.8529795 315.045523,12.0633796 314.632537,11.3590605 C314.086788,10.3968923 313.264735,9.61080394 312.310898,9.08206294 C311.051364,8.37222564 309.609587,8.08678576 308.186916,8.0010033 L306.817154,8.0010033 C305.784934,8.06320813 304.749774,8.18611282 303.756746,8.49212042 C302.604989,8.84127007 301.487036,9.44475719 300.720342,10.4124435 C300.281881,10.9512176 299.995779,11.5998533 299.807658,12.2695585 C299.808147,11.1669278 299.806678,10.0637955 299.809127,8.9606632 C299.807168,8.83926347 299.806678,8.69779766 299.703799,8.61552676 C299.618556,8.51770466 299.482853,8.52573109 299.366257,8.52322283 C298.216461,8.528741 297.066174,8.52021292 295.916378,8.52723604 C295.743933,8.51670136 295.605291,8.67873489 295.599902,8.84728989 C295.581776,9.16433383 295.606271,9.48238108 295.593043,9.79992667 C295.599902,9.88169591 295.570508,9.94390073 295.502902,9.98704279 C295.385326,9.93587431 295.282936,9.85611167 295.178588,9.7818672 C293.791189,8.78358012 292.157371,8.10635018 290.455457,8 L289.546691,8 C288.623229,8.05317509 287.703196,8.21520862 286.828233,8.52522944 C285.306112,9.06199687 283.935371,10.0061056 282.818888,11.1874956 C281.505954,12.5379422 280.573184,14.2801789 280.211147,16.1523434 C280.096021,16.7111835 280.039682,17.2790534 280,17.8474249 L280,19.0062405 C280.068586,20.2859543 280.328723,21.5621565 280.844588,22.7340151 C281.661253,24.5891235 283.037383,26.16732 284.693247,27.2804854 C286.276115,28.3439872 288.179869,28.8606886 290.066476,28.8386159 C291.953083,28.8561737 293.801477,28.1257687 295.278037,26.9428737 C295.359851,26.8866887 295.50927,26.7281667 295.582756,26.8786623 C295.619498,27.247878 295.576387,27.6206053 295.600392,27.9918276 C295.605781,28.1563694 295.742953,28.3179013 295.910989,28.3113798 C297.105366,28.3148914 298.299744,28.315393 299.493631,28.3113798 C299.676854,28.3173996 299.822355,28.1332934 299.807168,27.9516955 C299.813046,26.866121 299.804718,25.7805465 299.810597,24.694972 C300.163325,25.4619976 300.618933,26.1888911 301.229349,26.7688005 C302.251771,27.7700975 303.606836,28.3419806 304.981987,28.6083577 C306.128354,28.8391175 307.302156,28.8611902 308.466159,28.8305894 C309.696789,28.7734011 310.928889,28.5832751 312.096812,28.1724223 C313.025173,27.8473519 313.916302,27.3687761 314.639885,26.6840214 C315.337504,26.0283625 315.831323,25.1574949 316.054228,24.2168978 C316.365315,24.6754076 316.700897,25.1158578 317.073221,25.5231991 C318.423387,27.0361809 320.227201,28.1142307 322.180434,28.5607008 C324.396744,29.0799104 326.792847,28.8927943 328.853859,27.8814642 C330.783577,26.943877 332.39584,25.359159 333.437858,23.4533838 C333.72396,24.592635 334.235906,25.6922558 335.038853,26.5430572 C335.720794,27.2844986 336.585959,27.8318007 337.51579,28.1839603 C339.123153,28.8014936 340.868179,28.8862728 342.567644,28.8285828 C343.96582,28.756345 345.371834,28.5150505 346.670561,27.9652401 C347.672407,27.540341 348.616446,26.9052498 349.272912,26.0087981 C349.845116,25.2357526 350.151304,24.2841192 350.224299,23.3229543 L350.224299,22.4069381 C350.117991,21.0971253 349.582529,19.8149033 348.655148,18.8953755 L348.655148,18.8953755 Z M294.665662,22.3547663 C294.13363,23.3475352 293.256218,24.1336236 292.231346,24.5555128 C290.917923,25.0988017 289.400211,25.1740495 288.068661,24.6528332 C286.904658,24.2098747 285.917998,23.3254626 285.300724,22.2258418 C284.539418,20.8889398 284.296917,19.2961953 284.409105,17.7671606 C284.536479,16.2200664 285.112602,14.6789921 286.173236,13.5482689 C286.934542,12.7310781 287.959414,12.1782579 289.049442,12.0001715 C290.265375,11.8095438 291.548915,11.9690691 292.660009,12.5203844 C293.626583,13.0029734 294.401605,13.8472534 294.849864,14.8430322 C295.332416,15.9035241 295.501922,17.0834092 295.520048,18.2442315 C295.538175,19.6523681 295.345644,21.1101682 294.665662,22.3547663 L294.665662,22.3547663 Z M311.165021,24.0543626 C310.880389,24.5700607 310.404206,24.9553293 309.871684,25.1750528 C309.216687,25.4564794 308.495553,25.5071463 307.794016,25.4835686 C306.747588,25.4524662 305.648251,25.1765577 304.860491,24.4326081 C304.252035,23.873768 303.900286,23.074135 303.759685,22.2594525 C303.743518,22.1024355 303.639169,21.9248507 303.463785,21.9348838 C302.245402,21.8947516 301.02604,21.9103028 299.807658,21.8721773 C299.801779,19.7236026 299.814026,17.5745263 299.801779,15.42545 C299.940421,15.8473391 300.100128,16.2667201 300.346548,16.6364374 C300.809014,17.3583144 301.496345,17.8985934 302.233155,18.2999148 C303.613205,19.0483793 305.159331,19.3699381 306.677043,19.6794573 C307.829289,19.9267716 309.00505,20.1590364 310.067154,20.6988137 C310.680999,21.0158577 311.280148,21.5114896 311.448184,22.2263435 C311.570659,22.8428735 311.46582,23.5065589 311.165021,24.0543626 L311.165021,24.0543626 Z M314.397875,18.6746487 C313.48323,17.8318737 312.35058,17.2805583 311.190006,16.8912765 C309.957906,16.4678824 308.666039,16.2918026 307.413853,15.9516827 C306.750528,15.7700848 306.084263,15.5634042 305.490993,15.2027166 C305.050083,14.9328279 304.653753,14.5370246 304.491106,14.0263431 C304.300045,13.4333907 304.354424,12.7401079 304.708622,12.2208983 C305.011381,11.7618869 305.50618,11.474942 306.015187,11.317925 C306.707416,11.1132511 307.441777,11.1007098 308.154093,11.1900038 C308.887964,11.286321 309.617915,11.5802889 310.147008,12.1225745 C310.620252,12.5871041 310.913212,13.2191854 311.037647,13.8733393 C311.059692,14.0449042 311.166491,14.2340269 311.356082,14.2300137 C312.632273,14.2445616 313.908954,14.2611161 315.185145,14.2636244 C314.613431,15.6521966 314.364071,17.1701949 314.397875,18.6746487 L314.397875,18.6746487 Z M329.262926,22.2027658 C328.770086,23.1554026 327.973018,23.9314579 327.037798,24.4230767 C325.962956,24.9784053 324.71028,25.1158578 323.52815,24.9272368 C322.540021,24.7697181 321.601372,24.3122117 320.863092,23.6234437 C320.109135,22.9507287 319.601108,22.0291943 319.300799,21.0625113 C318.933374,19.8655701 318.846171,18.5873613 318.986773,17.3432648 C319.157258,15.9827851 319.635401,14.6082592 320.583848,13.6084672 C321.432356,12.689441 322.602728,12.0919738 323.832379,11.9615443 C324.872437,11.8451611 325.951688,11.9876302 326.901115,12.4526614 C327.91227,12.9533099 328.771556,13.7835436 329.294279,14.8054084 C329.828271,15.8428243 330.08008,17.0191978 330.105555,18.1870432 C330.141807,19.5655823 329.904206,20.9777321 329.262926,22.2027658 L329.262926,22.2027658 Z M344.688913,24.6869456 C344.116709,25.1931122 343.358833,25.4163473 342.617124,25.4725323 C341.60303,25.5297206 340.542885,25.4424332 339.626281,24.9573359 C338.869385,24.5670508 338.281014,23.8637349 337.999812,23.0465442 C337.872437,22.7410382 337.843043,22.4064365 337.742614,22.0939074 C337.637775,21.8716756 337.363921,21.9469234 337.17041,21.9203359 C336.150437,21.917326 335.130464,21.8867252 334.111471,21.8892335 C334.633705,20.2779279 334.751771,18.5462258 334.543074,16.8666956 C335.242651,17.8062894 336.291039,18.3872022 337.352163,18.7960484 C339.115805,19.4823081 341.015149,19.6458466 342.815534,20.1906405 C343.503354,20.407354 344.195093,20.6712229 344.762888,21.1357524 C345.140601,21.4422617 345.437481,21.8786988 345.509007,22.3738291 C345.618254,23.2171058 345.329703,24.1276038 344.688913,24.6869456 L344.688913,24.6869456 Z" id="asos"></path>
                </g>
            </g>
        </g>
    </g>
</svg>