<?xml version="1.0" encoding="UTF-8"?>
<svg width="108px" height="15px" viewBox="0 0 108 15" version="1.1" xmlns="http://www.w3.org/2000/svg" xmlns:xlink="http://www.w3.org/1999/xlink">
    <!-- Generator: sketchtool 40.1 (33804) - http://www.bohemiancoding.com/sketch -->
    <title>1245924C-8B21-4559-A815-78BCC8C2B260</title>
    <desc>Created with sketchtool.</desc>
    <defs>
        <linearGradient x1="50%" y1="4.56287397%" x2="50%" y2="94.867232%" id="linearGradient-1">
            <stop stop-color="#C3CDD5" offset="0%"></stop>
            <stop stop-color="#C3CDD5" stop-opacity="0.9" offset="100%"></stop>
        </linearGradient>
    </defs>
    <g id="Mention-v4" stroke="none" stroke-width="1" fill="none" fill-rule="evenodd">
        <g id="Mention.com-V5" transform="translate(-1099.000000, -733.000000)" fill="url(#linearGradient-1)">
            <g id="Group-3" transform="translate(0.000000, 700.000000)">
                <g id="Group" transform="translate(234.000000, 22.000000)">
                    <g id="hired" transform="translate(865.000000, 11.000000)">
                        <g id="27FEEE9B-559E-4D52-BCB8-EEF0E4FE9F1F">
                            <g id="Page-1">
                                <g id="Landing-Enterprise-V5">
                                    <g id="Clients-Logo">
                                        <path d="M2.70864,8.678357 L2.70864,15 L0,15 L0,0 L2.70864,0 L2.70864,6.2363918 L10.06776,6.2363918 L10.06776,0 L12.7764,0 L12.7764,15 L10.06776,15 L10.06776,8.678357 L2.70864,8.678357 L2.70864,8.678357 Z M26.8071429,15 L29.5157829,15 L29.5157829,0 L26.8071429,0 L26.8071429,15 L26.8071429,15 Z M53.4391714,15 L49.6494514,9.7711627 L46.2573257,9.7711627 L46.2573257,15 L43.5465257,15 L43.5465257,0 L50.4207257,0 C53.9668286,0 56.1482743,1.8207424 56.1482743,4.7571043 C56.1482743,7.2440965 54.6290229,8.7428957 52.4693314,9.3222433 L56.63304,15 L53.4391714,15 L53.4391714,15 Z M50.2008686,2.4003902 L46.2573257,2.4003902 L46.2573257,7.4357615 L50.2220057,7.4357615 C52.15968,7.4357615 53.3944286,6.4504203 53.3944286,4.9064439 C53.3944286,3.2563538 52.2045771,2.4003902 50.2008686,2.4003902 L50.2008686,2.4003902 Z M80.8191771,2.356714 L72.0947829,2.356714 L72.0947829,6.2572544 L79.8278914,6.2572544 L79.8278914,8.6136682 L72.0947829,8.6136682 L72.0947829,12.643286 L80.9279486,12.643286 L80.9279486,15 L69.3858343,15 L69.3858343,0 L80.8191771,0 L80.8191771,2.356714 L80.8191771,2.356714 Z M99.8054229,15 L94.0548857,15 L94.0548857,0 L99.8054229,0 C104.650611,0 108,3.2357915 108,7.4791375 C108,11.7226336 104.650611,15 99.8054229,15 L99.8054229,15 Z M99.8054229,2.4003902 L96.76584,2.4003902 L96.76584,12.6014108 L99.8054229,12.6014108 C103.044189,12.6014108 105.158829,10.4797378 105.158829,7.5208625 C105.158829,4.5636382 103.044189,2.4003902 99.8054229,2.4003902 L99.8054229,2.4003902 Z" id="HIRED"></path>
                                    </g>
                                </g>
                            </g>
                        </g>
                    </g>
                </g>
            </g>
        </g>
    </g>
</svg>