<?xml version="1.0" encoding="UTF-8"?>
<svg width="122px" height="33px" viewBox="0 0 122 33" version="1.1" xmlns="http://www.w3.org/2000/svg" xmlns:xlink="http://www.w3.org/1999/xlink">
    <!-- Generator: sketchtool 40.1 (33804) - http://www.bohemiancoding.com/sketch -->
    <title>16244C91-CE30-428F-BCC2-5EBFD8A3B48A</title>
    <desc>Created with sketchtool.</desc>
    <defs>
        <linearGradient x1="50%" y1="4.56287397%" x2="50%" y2="94.867232%" id="linearGradient-1">
            <stop stop-color="#C3CDD5" offset="0%"></stop>
            <stop stop-color="#C3CDD5" stop-opacity="0.9" offset="100%"></stop>
        </linearGradient>
    </defs>
    <g id="Mention-v4" stroke="none" stroke-width="1" fill="none" fill-rule="evenodd">
        <g id="Mention.com-V5" transform="translate(-921.000000, -724.000000)" fill="url(#linearGradient-1)">
            <g id="Group-3" transform="translate(0.000000, 700.000000)">
                <g id="Group" transform="translate(234.000000, 22.000000)">
                    <g id="Logo_Vinci" transform="translate(687.000000, 2.000000)">
                        <g id="Layer_1">
                            <g id="g3" transform="translate(0.345689, 0.460626)">
                                <path d="M53.6953473,11.7466417 L53.6953473,21.6724877 C53.6953473,21.6724877 57.2716797,22.5696408 62.8728068,22.5696408 C68.4359905,22.5696408 72.0502663,21.6766702 72.0502663,21.6766702 L72.0502663,18.3069434 C72.0502663,18.3069434 68.165558,19.0765294 62.8355533,19.0765294 C60.249887,19.0765294 58.534848,18.7698103 57.6145495,18.6736121 C57.6104102,17.8656863 57.6166191,15.568779 57.6145495,14.7490027 C58.6459185,14.6458336 60.3795843,14.3446913 62.8734966,14.3446913 C68.0620761,14.3635127 72.0509561,15.144252 72.0509561,15.144252 L72.0509561,11.7473388 C72.0509561,11.7473388 68.4904909,10.8522769 62.8734966,10.8522769 C57.2144197,10.8515798 53.6953473,11.7466417 53.6953473,11.7466417 L53.6953473,11.7466417 L53.6953473,11.7466417 Z" id="path5"></path>
                                <polygon id="polygon7" points="76.4082315 22.3465725 80.4281561 22.3465725 80.4281561 11.0363083 76.4082315 11.0363083"></polygon>
                                <polygon id="polygon9" points="22.6314785 22.3465725 26.6507132 22.3465725 26.6507132 11.0363083 22.6314785 11.0363083"></polygon>
                                <path d="M45.3574704,18.067842 C45.3574704,18.067842 42.45377,15.8957136 38.1820396,13.6594531 C34.4428958,11.7027251 31.153553,11.0551297 31.153553,11.0551297 L31.153553,22.3465725 L35.0437803,22.3465725 L35.0437803,16.3118756 C35.9778764,16.6952744 36.9837199,17.108648 38.1765206,17.7346336 C42.448251,19.9715913 45.3547109,22.3465725 45.3547109,22.3465725 L49.2587358,22.3465725 L49.2587358,11.0363083 L45.3581603,11.0363083 L45.3581603,18.067842 L45.3574704,18.067842 L45.3574704,18.067842 Z" id="path11"></path>
                                <path d="M9.97702918,17.6210082 C9.07949668,16.7733483 2.98441628,10.8432147 2.98441628,10.8432147 L0,13.5911384 L9.97702918,22.6484119 L19.9492292,13.5974122 L16.9730915,10.8432147 C16.9730915,10.8432147 10.878701,16.7733483 9.97702918,17.6210082 L9.97702918,17.6210082 L9.97702918,17.6210082 Z" id="path13"></path>
                                <path d="M108.081263,9.28243313 C108.944302,9.28243313 109.643149,8.57767645 109.643149,7.70701267 L109.643149,1.57751173 C109.643149,0.705453764 108.944302,0 108.081263,0 L102.018607,0 C101.156948,0 100.460861,0.705453764 100.460861,1.57751173 L100.460861,6.27519248 C100.460861,7.73489622 99.359124,8.98895879 98.8872468,9.48598303 C98.4098505,9.9871898 97.1315049,11.0397937 95.0880835,11.0432792 L89.4959248,11.0432792 L89.4959248,20.3598697 L98.7133973,20.3598697 L98.7133973,14.7085716 C98.7202961,12.6430978 99.7551145,11.3520895 100.251827,10.8717954 C100.746471,10.3921983 101.985493,9.28243313 103.42803,9.28243313 L108.081263,9.28243313 L108.081263,9.28243313 L108.081263,9.28243313 Z" id="path15"></path>
                                <path d="M119.699515,12.1851105 C118.742652,11.2105805 117.407737,10.6194493 115.927257,10.6194493 C112.895239,10.6194493 110.477213,13.1129355 110.477213,16.0902014 C110.477213,16.6360218 110.711082,17.6635306 110.711082,18.1033935 C110.711082,20.449097 108.831852,22.3465725 106.513858,22.3465725 L102.018607,22.3465725 C101.156948,22.3465725 100.460861,23.0534204 100.460861,23.9247813 L100.460861,30.0535851 C100.460861,30.924946 101.156948,31.6310969 102.018607,31.6310969 L108.081263,31.6310969 C108.944302,31.6310969 109.643149,30.924946 109.643149,30.0535851 L109.643149,25.5085668 C109.643149,23.1663488 111.523759,21.266085 113.842442,21.266085 C114.275686,21.266085 115.294638,21.502398 115.835503,21.502398 C118.780596,21.502398 121.245533,19.0611934 121.245533,15.9988828 C121.244843,14.500142 120.648788,13.1645201 119.699515,12.1851105 L119.699515,12.1851105 L119.699515,12.1851105 Z" id="path17"></path>
                            </g>
                        </g>
                    </g>
                </g>
            </g>
        </g>
    </g>
</svg>