<?xml version="1.0" encoding="UTF-8" standalone="no"?>
<svg width="145px" height="33px" viewBox="0 0 145 33" version="1.1" xmlns="http://www.w3.org/2000/svg" xmlns:xlink="http://www.w3.org/1999/xlink">
    <!-- Generator: sketchtool 3.7.1 (28215) - http://www.bohemiancoding.com/sketch -->
    <title>4BD9167F-5F2F-4904-99AA-25D188305939</title>
    <desc>Created with sketchtool.</desc>
    <defs></defs>
    <g id="Page-1" stroke="none" stroke-width="1" fill="none" fill-rule="evenodd">
        <g id="Menu-All" transform="translate(-763.000000, -2432.000000)" fill="#B4C2CD">
            <g id="Logo-Section" transform="translate(373.000000, 2247.000000)">
                <g id="Logos-Clients" transform="translate(0.000000, 122.000000)">
                    <g id="Microsoft" transform="translate(390.235294, 63.768519)">
                        <g id="svg5358">
                            <path d="M144.015226,14.5289065 L144.015226,11.8832786 L140.870031,11.8832786 L140.870031,7.77022223 L140.764166,7.80423849 L137.810006,8.748326 L137.751842,8.76688032 L137.751842,11.8832786 L133.089177,11.8832786 L133.089177,10.1473582 C133.089177,9.33897189 133.262274,8.72031261 133.603245,8.30775183 C133.941953,7.90010248 134.426417,7.69291256 135.0441,7.69291256 C135.488338,7.69291256 135.948248,7.80223753 136.410945,8.01779508 L136.526924,8.0718209 L136.526924,5.28558035 L136.472417,5.26466127 C136.040718,5.10258382 135.453335,5.02090842 134.725594,5.02090842 C133.808211,5.02090842 132.974591,5.22937168 132.24772,5.64266008 C131.520327,6.0564942 130.948095,6.647322 130.547393,7.39859009 C130.14791,8.14894867 129.945208,9.0155446 129.945208,9.97454833 L129.945208,11.8832786 L127.755192,11.8832786 L127.755192,14.5289065 L129.945208,14.5289065 L129.945208,25.6744144 L133.089177,25.6744144 L133.089177,14.5289065 L137.751842,14.5289065 L137.751842,21.6117457 C137.751842,24.5287761 139.069056,26.0071189 141.66674,26.0071189 C142.093737,26.0071189 142.542858,25.9547302 143.001716,25.8523176 C143.468599,25.7473584 143.786584,25.6423991 143.97378,25.5303456 L144.015226,25.5048789 L144.015226,22.8346938 L143.887405,22.9230997 C143.716746,23.0420656 143.504292,23.139021 143.255101,23.2110555 C143.004851,23.2845451 142.79588,23.3214719 142.634109,23.3214719 C142.025474,23.3214719 141.575322,23.1501172 141.295816,22.8121376 C141.013357,22.4710655 140.870045,21.8744167 140.870045,21.040018 L140.870045,14.5289065 L144.015226,14.5289065 L144.015226,14.5289065 Z M120.734219,23.3217265 C119.593063,23.3217265 118.693443,22.9264467 118.05939,22.1478929 C117.421506,21.3653371 117.098297,20.2497131 117.098297,18.8323084 C117.098297,17.3699733 117.421506,16.2254263 118.059738,15.4290458 C118.694139,14.6379405 119.585226,14.2364759 120.70862,14.2364759 C121.798752,14.2364759 122.666504,14.6199319 123.288018,15.376839 C123.912842,16.1375662 124.229781,17.2730179 124.229781,18.7524521 C124.229781,20.2500769 123.931649,21.4004448 123.343744,22.1699034 C122.760018,22.9337229 121.882166,23.3217265 120.734219,23.3217265 L120.734219,23.3217265 Z M120.874229,11.5510108 C118.6971,11.5510108 116.967865,12.2173292 115.73511,13.5315936 C114.503051,14.8460399 113.878228,16.6649091 113.878228,18.9383591 C113.878228,21.0975728 114.488075,22.8344027 115.690878,24.0997347 C116.89368,25.3656123 118.530619,26.0068278 120.555723,26.0068278 C122.666156,26.0068278 124.36091,25.3312323 125.593317,23.9987773 C126.825549,22.6675958 127.44985,20.8660076 127.44985,18.6456738 C127.44985,16.4526258 126.864035,14.7028806 125.708077,13.4459163 C124.551597,12.1884063 122.924931,11.5510108 120.874229,11.5510108 L120.874229,11.5510108 Z M108.8092,11.550938 C107.328292,11.550938 106.103374,11.9465816 105.167532,12.7267726 C104.226118,13.5115113 103.748619,14.5409123 103.748619,15.7864165 C103.748619,16.4338168 103.851711,17.0090008 104.054587,17.4966884 C104.258682,17.986195 104.574577,18.4169463 104.994086,18.7785737 C105.410635,19.1372906 106.053221,19.5131065 106.905126,19.8952891 C107.621026,20.2030726 108.155121,20.4635607 108.494351,20.6687497 C108.825918,20.8697548 109.061359,21.0720333 109.194229,21.2688546 C109.323269,21.4614921 109.388921,21.7250726 109.388921,22.0506828 C109.388921,22.9771255 108.724741,23.4278863 107.357897,23.4278863 C106.850968,23.4278863 106.272641,23.3174699 105.63911,23.0993657 C105.005231,22.8816253 104.412973,22.5685666 103.879052,22.167102 L103.748619,22.069419 L103.748619,25.2311117 L103.796508,25.2543955 C104.241442,25.4688617 104.802181,25.6496753 105.463226,25.792107 C106.123052,25.9345387 106.722451,26.0071189 107.243311,26.0071189 C108.850298,26.0071189 110.144351,25.6094743 111.088552,24.8247357 C112.038847,24.0345399 112.520525,22.9809455 112.520525,21.6921478 C112.520525,20.7626127 112.261227,19.9653226 111.750119,19.32247 C111.242668,18.6847106 110.361855,18.09934 109.133105,17.58182 C108.15425,17.171442 107.527163,16.8307338 107.268562,16.5693361 C107.019189,16.3166699 106.892588,15.9594083 106.892588,15.5070103 C106.892588,15.1059095 107.048794,14.7846651 107.369738,14.5243589 C107.693121,14.2627794 108.143105,14.1298067 108.707675,14.1298067 C109.231496,14.1298067 109.767507,14.2162117 110.300383,14.3855653 C110.833085,14.554919 111.300831,14.7817546 111.691433,15.0593418 L111.819776,15.151022 L111.819776,12.1517706 L111.770494,12.1295782 C111.410193,11.9682283 110.935132,11.8301623 110.358198,11.7181088 C109.783528,11.6071467 109.262319,11.550938 108.8092,11.550938 L108.8092,11.550938 Z M95.5524279,23.3217265 C94.4116203,23.3217265 93.5116518,22.9264467 92.8777731,22.1478929 C92.239715,21.3653371 91.9170289,20.2500769 91.9170289,18.8323084 C91.9170289,17.3699733 92.2400633,16.2254263 92.8784697,15.4290458 C93.5123484,14.6379405 94.4032615,14.2364759 95.5271772,14.2364759 C96.616961,14.2364759 97.4847131,14.6199319 98.1064019,15.376839 C98.7312252,16.1375662 99.0481645,17.2730179 99.0481645,18.7524521 C99.0481645,20.2500769 98.7498584,21.4004448 98.1619533,22.1699034 C97.5782277,22.9337229 96.7007236,23.3217265 95.5524279,23.3217265 L95.5524279,23.3217265 Z M95.6927867,11.5510108 C93.5151347,11.5510108 91.7858996,12.2173292 90.5536672,13.5315936 C89.321609,14.8460399 88.6964374,16.6649091 88.6964374,18.9383591 C88.6964374,21.0984823 89.3066327,22.8344027 90.509435,24.0997347 C91.7122373,25.3656123 93.3490027,26.0068278 95.3742801,26.0068278 C97.4841907,26.0068278 99.179468,25.3312323 100.411875,23.9987773 C101.643759,22.6675958 102.268408,20.8660076 102.268408,18.6456738 C102.268408,16.4526258 101.682418,14.7028806 100.526286,13.4459163 C99.3694575,12.1884063 97.7431406,11.5510108 95.6927867,11.5510108 L95.6927867,11.5510108 Z M83.9239924,14.2715108 L83.9239924,11.8832786 L80.8183349,11.8832786 L80.8183349,25.6740506 L83.9239924,25.6740506 L83.9239924,18.6195886 C83.9239924,17.4199244 84.1843354,16.4345445 84.6980558,15.6901887 C85.2053329,14.9547464 85.8813541,14.5820228 86.7066155,14.5820228 C86.9862883,14.5820228 87.3002673,14.6302277 87.6403676,14.725546 C87.9769851,14.8203185 88.2207846,14.9230949 88.3646263,15.0313284 L88.495059,15.1301029 L88.495059,11.859631 L88.4447318,11.8370747 C88.1554811,11.7086497 87.7464204,11.6438915 87.2286947,11.6438915 C86.4483621,11.6438915 85.7498765,11.9058349 85.151697,12.4215359 C84.6266574,12.8748434 84.2470267,13.4964131 83.9569053,14.2715108 L83.9239924,14.2715108 L83.9239924,14.2715108 Z M75.2568334,11.550938 C73.8321736,11.550938 72.5612816,11.8701815 71.4802049,12.4992093 C70.3970385,13.1296924 69.5594131,14.0299408 68.9894446,15.1746697 C68.4220884,16.3166699 68.1340567,17.6505801 68.1340567,19.1380182 C68.1340567,20.4410045 68.4133812,21.6368486 68.965413,22.6906249 C69.517793,23.7462203 70.2996929,24.5720695 71.2893447,25.1448887 C72.2776034,25.7169802 73.4198041,26.0071189 74.684427,26.0071189 C76.1602848,26.0071189 77.4203799,25.6987897 78.4307548,25.0910448 L78.4715041,25.0664876 L78.4715041,22.0945219 L78.3410714,22.194024 C77.8834249,22.5421904 77.3719683,22.8201414 76.821678,23.0204189 C76.2727808,23.2205145 75.7722953,23.3216538 75.3336303,23.3216538 C74.114981,23.3216538 73.1368226,22.9232816 72.4266694,22.1381791 C71.714949,21.3518033 71.3541257,20.2478212 71.3541257,18.85843 C71.3541257,17.4603074 71.7304477,16.3279481 72.4721206,15.492276 C73.2113556,14.6591506 74.1914296,14.236585 75.3848282,14.236585 C76.4056516,14.236585 77.4003536,14.5976667 78.3414197,15.3107347 L78.4715041,15.4095092 L78.4715041,12.2780127 L78.4295358,12.2532736 C78.0753299,12.0462656 77.5924327,11.8752748 76.9926859,11.7455765 C76.3957254,11.6162419 75.8118256,11.550938 75.2568334,11.550938 L75.2568334,11.550938 Z M65.9951339,11.883315 L62.8894764,11.883315 L62.8894764,25.674087 L65.9951339,25.674087 L65.9951339,11.883315 L65.9951339,11.883315 Z M64.4739991,6.00832573 C63.9628909,6.00832573 63.517086,6.19004893 63.1508643,6.55022105 C62.7830754,6.91148459 62.5963946,7.36624737 62.5963946,7.90286744 C62.5963946,8.43111987 62.7808115,8.87751501 63.1449435,9.22913758 C63.5068116,9.57966873 63.9540096,9.75739002 64.4739991,9.75739002 C64.9938145,9.75739002 65.4427539,9.57966873 65.8089756,9.2296833 C66.1776353,8.87751501 66.3644902,8.43111987 66.3644902,7.90286744 C66.3644902,7.38498359 66.1826854,6.93476845 65.824126,6.56477346 C65.466089,6.19550609 65.0117512,6.00832573 64.4739991,6.00832573 L64.4739991,6.00832573 Z M56.7253709,10.865847 L56.7253709,25.6740142 L59.8947645,25.6740142 L59.8947645,6.43063663 L55.5082889,6.43063663 L49.9325941,20.7240124 L44.5218123,6.43063663 L39.9566665,6.43063663 L39.9566665,25.6740142 L42.9350258,25.6740142 L42.9350258,10.8643917 L43.0374216,10.8643917 L48.7510372,25.6740142 L50.9986945,25.6740142 L56.6231492,10.865847 L56.7253709,10.865847 L56.7253709,10.865847 Z" id="path5056"></path>
                            <polygon id="path5058" points="14.6095114 15.2607472 0 15.2607472 0 0 14.6095114 0"></polygon>
                            <polygon id="path5060" points="30.7401576 15.2607472 16.1308204 15.2607472 16.1308204 0 30.7401576 0"></polygon>
                            <polygon id="path5062" points="14.6091631 32.1164383 0 32.1164383 0 16.8556912 14.6091631 16.8556912"></polygon>
                            <polygon id="path5064" points="30.7401576 32.1164383 16.1308204 32.1164383 16.1308204 16.8556912 30.7401576 16.8556912"></polygon>
                        </g>
                    </g>
                </g>
            </g>
        </g>
    </g>
</svg>