<?xml version="1.0" encoding="UTF-8"?>
<svg width="48px" height="37px" viewBox="0 0 48 37" version="1.1" xmlns="http://www.w3.org/2000/svg" xmlns:xlink="http://www.w3.org/1999/xlink">
    <!-- Generator: sketchtool 40.1 (33804) - http://www.bohemiancoding.com/sketch -->
    <title>3CF40D63-7B1A-4321-9470-FB337E0FE14D</title>
    <desc>Created with sketchtool.</desc>
    <defs>
        <linearGradient x1="50%" y1="4.56287397%" x2="50%" y2="94.867232%" id="linearGradient-1">
            <stop stop-color="#C3CDD5" offset="0%"></stop>
            <stop stop-color="#C3CDD5" stop-opacity="0.9" offset="100%"></stop>
        </linearGradient>
    </defs>
    <g id="Mention-v4" stroke="none" stroke-width="1" fill="none" fill-rule="evenodd">
        <g id="Mention.com-V5" transform="translate(-641.000000, -722.000000)" fill="url(#linearGradient-1)">
            <g id="Group-3" transform="translate(0.000000, 700.000000)">
                <g id="Group" transform="translate(234.000000, 22.000000)">
                    <g id="msf" transform="translate(407.000000, 0.000000)">
                        <g id="441AA4FC-65B6-49AF-A954-45DB92F8B493">
                            <g id="Page-1">
                                <g id="Landing-Enterprise-V5">
                                    <g id="Clients-Logo">
                                        <g id="MSF">
                                            <g id="g2172" transform="translate(0.029573, 0.169018)">
                                                <path d="M27.3949895,28.8780474 C27.3987159,28.8683706 27.3254289,28.7253222 27.3018281,28.6659991 C27.2749148,28.5986822 27.2769851,28.4278656 27.2856801,28.3891583 C27.2956173,28.3432987 27.2782272,28.3416157 27.2604231,28.2881829 C27.2542123,28.270933 27.2736727,28.1564942 27.2695321,28.1009578 C27.267876,28.0752932 27.1751286,27.8889095 27.1680898,27.8510438 C27.161051,27.814861 27.1738865,27.7260867 27.1680898,27.6638187 C27.1639493,27.6301602 27.1573245,27.6015505 27.144903,27.5699957 L26.7573518,26.3793279 L26.5950439,25.8466827 C26.5813803,25.8029268 26.3292235,25.3847205 26.3143178,25.3388608 C26.0381461,24.4877226 25.1731946,23.0698603 24.289197,22.5039774 C24.2602134,22.4850446 24.0200641,22.1892709 23.9815574,22.1598198 C23.9310433,22.121954 23.781157,22.0529542 23.7583843,22.0306555 C23.690894,21.9658629 23.6407939,21.8442717 23.535211,21.8711985 C23.5124382,21.8770887 23.4950481,21.8892899 23.4813845,21.9082228 C23.4590258,21.937674 23.198174,22.6007455 23.1538706,22.6815258 C23.1066688,22.7677756 23.0445613,22.8548668 23.0201322,22.9116655 C22.9832818,23.0160067 22.9600949,23.1073052 22.9418767,23.2166953 C22.6859935,24.2626317 20.7598308,27.6082821 20.2708371,28.5448287 L18.4436325,32.0415214 C18.1078376,32.5838433 18.1430319,32.0251129 18.0237853,31.9708386 C17.8606494,31.8959486 17.8958437,32.0242714 17.8022683,32.0924298 C17.6867482,32.1769967 17.4022956,32.2329539 17.2855333,32.2287466 C17.2681432,32.2279051 17.0760238,32.3347707 17.0242675,32.3503377 C16.9638162,32.3684292 16.9108177,32.356228 16.9070913,32.2893318 C16.905435,32.2607221 16.92945,32.1799418 16.9348326,32.1349237 C16.9393871,32.095375 16.9253095,32.0692896 16.8979821,32.0411007 C16.8586473,32.0007106 16.8437415,32.0263752 16.7683844,32.0642409 C16.6975817,32.1004237 16.6897147,32.0692896 16.6392006,31.998607 C16.5845459,31.9220339 15.9767198,31.7815099 15.9100577,31.8113817 C15.8226931,31.8509304 15.666596,31.9994484 15.6007621,31.9098327 C15.5750909,31.8744914 15.5850281,31.7865586 15.5734347,31.7226076 C15.5647396,31.6674918 15.5233346,31.6262602 15.469094,31.6191079 C15.3651673,31.614059 15.2794588,31.6641261 15.2595844,31.6191079 C15.2264604,31.5467421 15.2595844,31.5055105 15.2177653,31.4743765 C15.198305,31.4588095 15.0620823,31.423468 15.042622,31.4087425 C14.9892095,31.3683524 14.9900376,31.3149196 14.9316565,31.2863098 C14.9192349,31.2812611 14.9080556,31.2778952 14.894806,31.2774745 C14.7631379,31.2661148 14.6948196,31.3052427 14.6281575,31.2669562 C14.5515581,31.2227795 14.5047704,31.1197005 14.4749588,31.0014752 C14.451772,30.9084937 14.4314835,30.6754089 14.4198901,30.6547931 C14.4116091,30.6400675 14.386766,30.6291285 14.3689619,30.6261834 C14.3259006,30.6177688 14.2372938,30.6590004 14.1934045,30.6779333 C14.1168051,30.7107503 11.8271061,32.0150154 11.7575456,32.0650824 C11.5136699,32.2417893 11.4263052,32.3322464 11.3977358,32.6132945 C11.317824,33.3962743 11.7012348,35.6833663 12.7632742,35.9833473 C12.9052935,36.0237374 12.9922441,35.9850302 13.1230841,35.9273901 L23.641622,30.6968662 C23.9981194,30.5159519 27.0662334,29.0476019 27.1478013,29.0189922 C27.1904485,29.0038459 27.3896068,28.8898278 27.3949895,28.8780474 L27.3949895,28.8780474 L27.3949895,28.8780474 L27.3949895,28.8780474 Z M8.8339353,26.5198519 C8.83766175,26.5198519 8.83434935,26.5282665 8.83020884,26.5345775 C8.82234188,26.5459371 8.80826417,26.550986 8.7954286,26.5551932 C8.75402356,26.566553 2.83558624,29.7548501 2.349491,30.0047642 L0.391446359,31.1264322 C0.159992151,31.262749 0.0229414475,31.4848947 0.00389512644,31.7558453 C-0.048275232,32.5750079 0.432023305,33.7084564 0.940477273,34.4026621 C1.07959823,34.5924116 1.39676089,35.0097765 1.66506558,35.0821421 C1.80377249,35.1191665 1.91308181,35.0821421 2.03398454,35.0442763 C2.09567807,35.0253435 8.13004951,32.1525944 8.89438671,31.7777233 C10.8677512,30.8950303 12.5367886,30.1579102 14.5184341,29.2945708 C14.6227748,29.2503941 14.6517584,29.2323026 14.6753592,29.1393211 C14.7043428,29.0253031 14.739123,28.783383 14.7631379,28.7127002 C14.7821843,28.6550602 14.8579555,28.5195849 14.9105399,28.4127193 C14.952773,28.3273109 15.1030734,27.8809156 15.2053438,27.635209 C15.2405381,27.5506421 15.2778026,27.4740691 15.3072002,27.3911852 C15.354402,27.2573928 15.3987054,27.0306189 15.4409386,26.9128144 L17.5911026,21.4630898 L18.6336817,18.8903216 C18.7906068,18.3846033 18.7719745,18.2470244 19.0535288,17.7652877 C19.0974181,17.6903977 19.4340412,16.6116442 19.4456346,16.5279187 C19.4667512,16.3772972 19.6062862,16.1980659 19.4613685,16.1627245 C19.3955345,16.146316 19.2605541,16.1841818 19.1876812,16.2094256 C18.9930775,16.2826328 18.8315977,16.3507912 18.6432048,16.4391446 C12.9495969,19.12551 8.21410176,21.5518639 2.70350414,24.6072102 C2.32174962,24.8264109 2.00375887,25.018264 1.63194155,25.2538732 C1.3739881,25.4032326 1.2327969,25.6695551 1.25060107,25.9703776 C1.32181775,26.9439484 1.55285791,27.7568001 2.00251671,28.6188773 C2.16275424,28.9066571 2.36977947,28.8784681 2.69894959,28.7922183 C2.77099437,28.7732855 4.28103641,28.1653296 4.79363088,27.949074 L8.74739875,26.5379433 C8.77638228,26.5295287 8.80246746,26.5240592 8.8339353,26.5198519 L8.8339353,26.5198519 L8.8339353,26.5198519 L8.8339353,26.5198519 Z M29.5112013,19.7805877 C29.4933972,19.8537949 29.6896571,20.0477517 29.7347886,20.0927699 C29.8705971,20.2265623 30.0834191,20.4158911 30.1413861,20.4848909 C30.7094634,21.178255 31.0903898,21.8497412 31.3967872,22.6962514 C31.4000996,22.7050868 37.6771046,22.5935931 37.7172674,22.5834956 C40.782483,21.5203091 43.407149,20.7322805 46.5489638,19.9307886 C46.6860145,19.8798801 46.7783478,19.848746 46.8255495,19.7334658 C47.2685836,18.6643892 46.7928396,16.5502175 46.2346996,15.6283966 C46.0732199,15.3616533 45.8889674,15.3641777 45.5660081,15.4411714 C44.9532134,15.5871649 41.1203482,16.4202117 40.149814,16.6457234 C36.6995314,17.4783494 33.8135997,18.2987742 30.4382604,19.4061374 C30.2039078,19.4814482 29.5314898,19.6993867 29.5112013,19.7805877 L29.5112013,19.7805877 L29.5112013,19.7805877 L29.5112013,19.7805877 Z M24.0858982,14.4823262 C24.060227,14.5509052 24.1161238,14.6093868 24.1504901,14.6401001 C24.2026604,14.6863805 25.0796193,15.2535255 25.1607731,15.3195803 C25.2203964,15.3675436 25.2671841,15.412141 25.3176983,15.4697811 C25.5764798,15.7638718 25.5802063,15.8522253 25.8112464,16.0226212 C26.0613329,16.2069013 25.9507814,16.1257003 26.1847199,16.3865533 C26.2596631,16.4702787 26.6178168,16.7828816 26.6828226,16.8569301 C26.775984,16.9629543 26.7830228,16.9827287 26.8861214,17.0445761 C26.9192455,17.0643504 28.4922232,18.6479807 28.5191364,18.685005 C28.6454218,18.858346 28.8019329,19.1831501 28.9886697,19.1625344 C29.015583,19.16001 32.9445078,17.2179171 33.1602281,17.100954 C34.1535351,16.6187966 34.9961279,16.2195231 35.9977159,15.7558779 C37.5967788,15.0376907 40.6156207,13.6547489 40.9245024,13.5251638 C41.208541,13.4060971 41.3575991,13.320268 41.339795,13.0350126 C41.2888668,12.2171121 40.3353086,9.78697167 39.5403317,9.30271061 C39.345728,9.18364388 39.1382887,9.26400341 38.8944129,9.33552767 C36.835754,9.93885545 24.2701506,13.9833395 24.0858982,14.4823262 L24.0858982,14.4823262 L24.0858982,14.4823262 L24.0858982,14.4823262 Z M36.9020021,7.62567812 L37.0589272,7.17255116 C37.0638958,7.16034997 37.0672083,7.14941097 37.0688644,7.13678905 C37.0800438,7.03665515 37.0233189,7.04044173 36.9802576,6.97733213 C36.9454774,6.92600298 36.9392667,6.71269252 36.9342981,6.69628402 C36.926017,6.67061946 36.9148377,6.65042438 36.8974475,6.63065004 C36.818778,6.5355649 36.6987033,6.44889438 36.6668215,6.37737016 C36.6539859,6.34918121 36.6237602,5.92676759 36.6113387,5.8994201 C36.5980891,5.87038968 36.5455047,5.81317031 36.5123807,5.7664692 C36.5036856,5.75468874 36.4974748,5.74417047 36.4916781,5.73070709 C36.4747021,5.69031695 36.4610383,5.57756112 36.4506872,5.56409774 C36.4378515,5.54726851 36.3914779,5.53001856 36.3811266,5.51487225 C36.3736738,5.50435398 36.3678771,5.4635431 36.3699473,5.43451269 C36.3774002,5.3318544 36.3943762,5.28262891 36.3351671,5.22414734 C36.2407636,5.13200732 36.1935618,5.14757436 36.1600237,5.03692219 C36.0958458,4.82571539 35.7509418,4.71927052 35.5091363,4.75587409 C35.4648329,4.76260578 35.2077076,4.87578233 35.1124761,4.90102618 C35.0180726,4.91743467 34.9369186,4.9245871 34.841273,4.9245871 C34.5833195,4.91575175 34.5816634,4.9136481 34.2818908,5.04155022 C34.2119163,5.0714221 32.0580258,5.69326207 31.7168482,5.78203624 C22.7087663,8.417914 15.3448788,11.5376321 7.16241358,16.1841818 C7.03157363,16.2653828 6.78190121,16.4155836 6.68832579,16.5375956 C6.59475039,16.6604489 6.57570407,16.7538511 6.48999563,16.8140157 C6.4593559,16.8354729 6.35460112,16.8724972 6.27758774,16.9078385 C6.24694801,16.9217227 6.00224419,17.1232527 5.98692432,17.1468136 C5.96704989,17.1779477 5.935168,17.2625145 5.9778152,17.3247827 C5.98858052,17.3407704 6.01011114,17.3512887 6.02874341,17.3575997 C6.0639377,17.3698009 6.10534275,17.3723253 6.13929488,17.3857886 C6.17862968,17.400935 6.21672232,17.432069 6.25026041,17.4421665 C6.34880442,17.4707762 6.36453833,17.4392214 6.41174009,17.5031725 C6.44279388,17.5452455 6.51069815,17.7450926 6.56411066,17.7795926 C6.61669507,17.8140925 6.69122415,17.8124095 6.71648123,17.8498546 C6.72020768,17.8561656 6.72310603,17.8616351 6.72559034,17.8683667 C6.74049616,17.9041289 6.81088474,18.3896521 6.81088474,18.4548654 C6.81088474,18.499042 6.78479956,18.7628402 6.85063358,18.8108035 C6.90653039,18.8511936 7.0460654,18.8183766 7.10900107,18.8011266 C7.37357932,18.728761 7.35991565,18.6202125 7.68080476,18.3984874 L8.4745395,17.9436776 C8.5221553,17.911702 8.63353487,17.8708911 8.64968284,17.8549033 C8.66790106,17.8334461 8.68156473,17.8136718 8.69605649,17.7892693 C8.7478128,17.7143793 8.82027163,17.6941842 8.93579171,17.6580014 C9.04013244,17.6256051 9.04468701,17.6558977 9.1573087,17.7425682 C9.38917697,17.9209581 9.57881206,18.047598 9.84918702,17.8456472 C9.97008977,17.7678121 10.0756726,17.7076477 10.2044423,17.6441173 C18.6547982,13.5706027 26.1511818,10.8825544 35.2462143,8.66488292 C35.4118345,8.63332811 36.786482,8.29379845 36.8196061,8.27612776 C37.0175222,8.1696829 36.96618,7.94375052 36.9003459,7.67995238 C36.8937212,7.65512926 36.8941352,7.64965977 36.9020021,7.62567812 L36.9020021,7.62567812 L36.9020021,7.62567812 L36.9020021,7.62567812 Z M19.1404794,4.35281409 C19.1404794,5.13284878 19.4638529,6.5519734 20.2016908,7.06147826 C20.2853289,7.11911837 20.3805605,7.14899025 20.4277623,7.22051446 C20.4969087,7.32569714 20.4695814,7.35767267 20.5615006,7.38459943 C20.7035199,7.42583104 20.720496,7.38249578 20.9805197,7.38922747 C21.0198545,7.39006893 21.1999664,7.41952008 21.253793,7.40773962 C21.3419857,7.38880674 21.394156,7.33705686 21.4657868,7.3841787 C21.5100902,7.41320912 21.4972546,7.4308798 21.5258241,7.48262968 C21.5721978,7.56719655 21.8173157,7.55457463 21.8848059,7.54826367 C22.1394469,7.52344056 22.3576516,7.45696511 22.4810386,7.24828268 C22.5174749,7.18685601 22.6702596,6.93147248 22.8507856,6.85195438 C22.9464313,6.80988131 22.9646495,6.82713127 23.0056405,6.79178989 C23.0888647,6.71984494 23.182026,6.52336371 23.2130798,6.47876626 C23.239993,6.44005903 23.4428778,6.25830337 23.5650227,6.14260244 C24.1699504,5.56914651 24.9823174,3.79071789 24.7972368,2.79442762 C24.757488,2.58111716 24.6047034,1.87639325 24.4879412,1.69968636 C24.4382551,1.62437557 24.3500624,1.54864405 24.3219069,1.46533937 C24.3136259,1.44093699 24.3107276,1.41569315 24.3032746,1.39044931 C24.1906529,0.984023468 23.4784861,0.0908122118 23.0752009,0.0874463655 C23.0337959,0.0870256349 22.9973595,0.0937573264 22.9609231,0.0874463655 C22.9265568,0.0819768669 22.7915764,0.0121355726 22.7489292,0.0033002281 C22.7066961,-0.00553511637 22.5203733,0.00372095876 22.4814526,0.0268611467 C22.3282539,0.111848746 22.189547,0.166964466 22.0202004,0.209458265 C21.9423589,0.229232608 21.9125473,0.221238725 21.8562364,0.264153255 C21.8040661,0.30370194 21.7552081,0.367653004 21.7071782,0.402994382 C21.6798509,0.422768725 21.5485969,0.46862837 21.466615,0.50523194 C20.7407844,0.828773839 19.9135116,1.81580804 19.6443788,2.53441605 C19.5503894,2.78264716 19.1404794,4.1129976 19.1404794,4.35281409 L19.1404794,4.35281409 L19.1404794,4.35281409 L19.1404794,4.35281409 Z" id="Combined-Shape"></path>
                                            </g>
                                        </g>
                                    </g>
                                </g>
                            </g>
                        </g>
                    </g>
                </g>
            </g>
        </g>
    </g>
</svg>