<?xml version="1.0" encoding="UTF-8"?>
<svg width="69px" height="50px" viewBox="0 0 69 50" version="1.1" xmlns="http://www.w3.org/2000/svg" xmlns:xlink="http://www.w3.org/1999/xlink">
    <!-- Generator: sketchtool 40.1 (33804) - http://www.bohemiancoding.com/sketch -->
    <title>271A35BC-739D-4DE0-B9FC-9C1D487A5AD8</title>
    <desc>Created with sketchtool.</desc>
    <defs>
        <linearGradient x1="50%" y1="4.56287397%" x2="50%" y2="94.867232%" id="linearGradient-1">
            <stop stop-color="#C3CDD5" offset="0%"></stop>
            <stop stop-color="#C3CDD5" stop-opacity="0.9" offset="100%"></stop>
        </linearGradient>
    </defs>
    <g id="Mention-v4" stroke="none" stroke-width="1" fill="none" fill-rule="evenodd">
        <g id="Mention.com-V5" transform="translate(-234.000000, -722.000000)" fill="url(#linearGradient-1)">
            <g id="Group-3" transform="translate(0.000000, 700.000000)">
                <g id="Group" transform="translate(234.000000, 22.000000)">
                    <g id="Ogilvy-Logo">
                        <g id="svg27957">
                            <g id="layer1" transform="translate(0.016288, 0.067776)">
                                <g id="g6482" transform="translate(61.067948, 31.500415) scale(1, -1) translate(-61.067948, -31.500415) translate(53.067948, 13.000415)">
                                    <path d="M6.42384559,35.718128 C6.68447019,35.8797526 7.02218093,36.0342335 7.2378386,36.1351372 C7.45808474,36.234255 7.74165163,36.3503389 8.04907853,36.3503389 C8.3473285,36.3503389 8.55656233,36.2565788 8.80801,36.0842388 C9.06037536,35.9083271 9.27236227,35.7225928 9.51187994,35.3805917 C9.74589146,35.0332329 10.2001491,34.4260248 10.3607453,34.2090371 C10.5250122,33.9866918 10.9710106,33.3553739 11.1554667,33.2419688 C11.3408406,33.1249919 11.381219,33.1446369 11.476659,33.1607101 C11.5803582,33.1776762 11.6904813,33.2562561 11.8033574,33.5598602 C11.9052213,33.8438193 12.0080028,34.0545562 12.135562,34.3661969 C12.2732159,34.6760517 12.5402643,34.9394728 12.839432,35.1189564 C13.1422704,35.3011189 13.8140211,35.6583002 14.5325741,35.6118666 C15.0685064,35.5743626 15.4282417,35.4305971 15.558554,35.2153954 C15.6741833,35.0207316 15.7209856,34.6260463 15.6585825,34.3795912 C15.5906733,34.135815 15.090531,31.940043 14.9684779,31.4328456 C14.8427541,30.9220764 13.5800096,25.8250995 13.4276727,25.1062722 C13.2780888,24.3838731 12.9082589,22.5006348 12.7256381,21.6192899 C12.5402643,20.7343733 11.4711528,15.5811404 11.2995444,14.8623131 C11.1233475,14.1479505 10.1441699,9.78498118 9.78718761,8.46162453 C9.43571149,7.13112426 8.84655308,5.46576654 8.68871001,5.00410974 C8.49783003,4.44512103 8.10230468,3.49055406 7.89582393,3.05300699 C7.60766857,2.46544379 6.80468787,1.34121571 6.72026018,1.27960194 C6.63675019,1.21084454 6.28619176,0.967068317 6.03749717,0.817052179 C5.7851318,0.67239376 5.35014569,0.441118881 4.89680573,0.342894029 C4.44621884,0.246455083 3.62396661,0.186627219 3.50007816,0.260742335 C3.27616125,0.395578268 2.93294436,0.551845078 2.644789,0.864378698 C2.48419286,1.03136095 1.94275445,1.66892953 1.42609372,2.89674018 C0.905762229,4.12633674 0.408373041,6.52123723 0.375336121,7.17755783 C0.343216893,7.83387843 0.264295362,8.29107047 0.267048438,8.39286714 C0.271636899,8.48752017 0.239517671,8.72236687 0.239517671,8.72236687 C0.239517671,8.72236687 0.303756127,9.04740183 0.660738404,9.42244218 C1.00946145,9.79926843 1.18841143,9.98053793 1.62431524,10.1091232 C2.06205444,10.2430662 2.39334133,10.208241 2.58146824,10.1243034 C2.76225361,10.0475094 2.91734359,9.98053793 2.91734359,9.83498656 C2.91734359,9.44119419 2.84301052,9.09919312 2.93294436,8.58663798 C3.02838435,8.00086068 3.16695588,7.31060786 3.33305817,6.73554599 C3.50374893,6.16227004 4.03692811,4.65228618 4.29112886,4.26206563 C4.54074114,3.86827327 4.64168729,3.73343733 4.82706112,3.7512964 C5.00876418,3.7664766 5.14733571,3.81558903 5.37951184,4.18080689 C5.61811182,4.53888112 6.07053409,5.47558903 6.27150868,6.07922539 C6.47340097,6.68821947 6.75605018,7.79726735 6.93867093,8.39286714 C7.12312707,8.98489511 7.49112166,10.3680796 7.7930424,11.6226789 C8.09496314,12.8853147 8.39871927,14.3935126 8.53545541,15.1891339 C8.66852078,15.9918989 8.94933461,17.8313825 9.11268382,18.6511135 C9.27786842,19.4663798 9.46140687,20.3557612 9.53206917,20.8343841 C9.59997839,21.3005057 9.92484144,23.2891124 9.97806759,23.5677138 C10.0267053,23.8472082 10.8966775,28.0771275 11.0490144,28.8263152 C11.1958452,29.5808607 11.2995444,29.9407208 11.3133098,30.05234 C11.333499,30.1728887 11.4335275,30.2845078 11.4518813,30.3818397 C11.4656467,30.4622055 11.381219,30.5640022 11.2995444,30.6309737 C11.2132813,30.6952663 11.1114175,30.7408069 11.0490144,30.7408069 C10.9792698,30.7408069 10.8562991,30.681872 10.7122214,30.6309737 C10.4433376,30.5336418 10.1542645,30.5131038 9.86886222,30.5131038 C9.58529532,30.5131038 9.33292996,30.6836579 9.01999691,30.9720818 C8.70706386,31.2631845 8.11331699,32.0471974 7.83617393,32.3829478 C7.56178396,32.723163 7.11211477,33.4214524 6.85883171,33.6214739 C6.60830173,33.8223884 6.22011792,33.9429371 6.01639025,34.1188489 C5.81816872,34.3019043 5.76861334,34.4831738 5.71905796,34.7055191 C5.6676672,34.9394728 5.68326797,35.1189564 5.68326797,35.2002152 C5.68326797,35.2841528 5.93379794,35.4948897 6.00170717,35.5448951 C6.07053409,35.5975794 6.35134791,35.6725874 6.42384559,35.718128" id="path6484"></path>
                                </g>
                                <g id="g6486" transform="translate(26.063776, 2.523466) scale(1, -1) translate(-26.063776, -2.523466) translate(23.563776, 0.523466)">
                                    <path d="M2.75307668,0.892953201 C2.56586747,0.892953201 2.46583902,0.851877354 2.35571595,0.807229694 C2.24742827,0.754545455 1.9721206,0.659892415 1.73627369,0.673286714 C1.50226218,0.690252824 1.33891296,0.643819258 1.18932913,0.832232383 C1.03423914,1.0170737 0.934210688,1.16262507 0.917692228,1.33764389 C0.903009152,1.50819796 0.949811456,1.58231307 0.890161461,1.69928994 C0.832346851,1.81537386 0.783709163,2.02343195 0.768108395,2.1064766 C0.750672242,2.18952125 0.66716225,2.50830554 0.783709163,2.70207639 C0.903009152,2.90120495 1.13518529,3.17802044 1.36369065,3.31017752 C1.58668986,3.44233459 2.09233828,3.78165681 2.5034644,3.8638085 C2.91459052,3.93970952 2.87421206,3.9325659 3.11556511,3.9325659 C3.35967125,3.9325659 3.65149737,3.86648736 3.79282198,3.80487359 C3.93781735,3.75754707 4.25900963,3.48073158 4.28929347,3.42001076 C4.34802578,3.30303389 4.39758116,3.13247983 4.29663501,2.8181603 C4.19568887,2.50830554 3.87816735,2.0645078 3.74418429,1.81715976 C3.61111892,1.57338354 3.39821432,1.28585261 3.24954818,1.15369554 C3.09904665,1.02332437 2.82740975,0.892953201 2.75307668,0.892953201" id="path6488"></path>
                                </g>
                                <g id="g6490" transform="translate(29.030018, 19.441185) scale(1, -1) translate(-29.030018, -19.441185) translate(0.030018, 2.441185)">
                                    <path d="M20.189229,8.92953201 C20.1396736,8.45001614 19.912086,7.27578268 19.8414237,6.74001076 C19.7762675,6.20334589 19.5881406,5.54434642 19.4550752,5.26485207 C19.3220099,4.97910705 19.2017922,4.55138247 19.0604676,4.55138247 C18.9154722,4.55138247 18.8567399,4.75051103 18.7631353,5.11662184 C18.6750368,5.48809037 18.6906376,5.75597633 18.6713661,6.10779989 C18.6493415,6.45515869 18.8264561,7.33025283 18.8567399,7.69725659 C18.8805999,8.07051103 19.1733437,9.32600323 19.3220099,9.97518021 C19.4798529,10.608284 19.8065514,11.6414309 19.914839,11.8173427 C20.0258798,11.9914685 20.1204021,12.4915223 20.2085005,12.5209898 C20.2874221,12.5495643 20.3011875,11.9111027 20.3011875,11.5592792 C20.3011875,11.2074556 20.2452082,9.40994083 20.189229,8.92953201 M18.7539584,17.9313932 C18.3171369,17.9108553 18.2831823,17.9313932 18.0656892,17.8662076 C17.8463608,17.8001291 17.5829831,17.7010113 17.5499462,17.8438838 C17.52058,17.9912211 17.6187731,18.4216245 17.6187731,18.4216245 C17.6187731,18.4216245 17.7325669,18.5993222 18.0702777,18.7154061 C18.4024822,18.832383 18.728263,18.8681011 18.9705337,19.0074018 C19.208216,19.1484884 19.6064944,19.5315654 19.6064944,19.5315654 C19.6064944,19.5315654 19.7891152,19.2020656 19.7762675,18.8913179 C19.756996,18.5787843 19.6597206,18.355546 19.5101368,18.2207101 C19.3541291,18.0939107 19.1880268,17.9438946 18.7539584,17.9313932 M11.0857221,20.2396773 C11.0150598,20.0450135 10.8489575,19.6021087 10.770036,19.4592362 C10.6883614,19.3199355 10.2854945,18.5859279 10.1221453,18.374298 C9.96154913,18.164454 9.75415069,17.8001291 9.65962839,17.7027972 C9.45865379,17.5072405 9.26502073,17.3340075 9.03376229,17.1705971 C8.90895615,17.0732652 8.4895708,16.8794944 8.41432004,16.8455621 C8.18765006,16.7553739 7.8279147,16.6544702 7.25894552,16.6330393 C6.69089403,16.6214309 6.127431,16.7223346 5.61902951,16.9482518 C4.96379726,17.2456052 4.41777038,17.6599355 3.83136505,18.8064874 C3.24587741,19.9566111 3.02563127,20.5245293 3.02563127,21.2156751 C3.02563127,21.905035 3.29543279,23.1006993 3.52944431,23.6418289 C3.7662089,24.1829586 4.18559425,25.300043 4.42144115,25.7358042 C4.6279219,26.1135234 4.98765726,26.654653 5.30884954,26.9528994 C5.40428953,27.0466595 5.47770491,27.1341689 5.6080172,27.2127488 C5.74475335,27.2957934 5.82826334,27.3466918 6.09531178,27.590468 C6.36511329,27.8360301 6.54681635,27.8556751 6.61472558,27.8833567 C6.67896403,27.9190748 6.81661787,27.8556751 6.88085632,27.8699624 C7.02860477,27.9074664 7.08550169,27.8556751 7.18644784,27.590468 C7.25435706,27.4136633 7.75449932,26.3787305 7.89123547,26.1153093 C8.02430084,25.8626036 8.14451852,25.8581388 8.16103698,25.7250888 C8.17939083,25.5982894 8.19315621,25.2830769 8.37761235,24.8544594 C8.5602331,24.4267348 9.13470844,23.6078967 9.38615611,23.2346423 C9.6348507,22.8569231 10.5002345,21.8961054 10.7516821,21.5728564 C11.0040475,21.236213 11.2105283,21.0352986 11.2105283,20.9093922 C11.2105283,20.7745562 11.1499606,20.4370199 11.0857221,20.2396773 M56.0875136,24.118666 C55.7213544,24.1677784 54.5935106,24.0266918 54.2640591,23.9802582 C53.9382784,23.9373965 53.2399146,23.8230984 52.7865746,23.4802044 C52.2029224,23.0346208 52.1671324,22.4309844 52.1478608,22.0523723 C52.1313424,21.6782249 52.1267539,21.0710167 52.1129885,20.6307908 C52.0973878,20.1593115 52.0606801,20.0226896 51.9817586,19.5797848 C51.9303678,19.4029801 51.8835655,19.1788488 51.843187,19.0752663 C51.7917963,18.9395374 51.685344,18.9109629 51.5137355,19.0020441 C51.3889294,19.0690156 51.2191563,19.3136848 51.1163748,19.4101237 C50.8695156,19.6405057 49.5874995,21.2915761 49.016695,21.9684346 C48.3770635,22.7238731 47.9576781,22.7417321 47.5034205,22.7524476 C47.1436851,22.7604841 46.2599475,22.4756321 45.9956521,22.3497257 C45.6772129,22.1979236 45.5413945,22.0032598 45.5413945,22.0032598 C45.5413945,22.0032598 45.4762383,21.5942873 45.5111107,21.1862076 C45.5413945,20.7727703 45.4569668,20.1557397 45.331243,19.7690909 C45.1724822,19.2645724 44.8613846,19.0261539 44.6769284,18.9832921 C44.3841846,18.9198924 43.9042316,19.2351049 42.880087,20.4870253 C42.0147033,21.541603 41.0502087,23.5578913 40.7308518,24.5740721 C40.4087419,25.5947176 40.0260642,26.8109199 40.0104634,27.0073696 C39.9902742,27.2047122 39.9737557,27.4065196 39.934295,27.5092093 C39.8929988,27.5949328 39.8682211,27.7279828 39.8682211,27.9092523 C39.8682211,28.0905218 39.8131596,28.2360732 39.8131596,28.2360732 C39.8131596,28.2360732 39.6911065,29.5254976 39.6259504,30.0344809 C39.5580412,30.5416783 39.4818727,32.6258311 39.394692,33.2169661 C39.3157704,33.8063152 38.702752,33.9965143 38.1833382,33.8857881 C37.6694306,33.7714901 37.0242929,33.5232491 36.5213976,33.2133943 C36.0203376,32.8981818 35.8303753,32.3463368 35.879013,31.6382249 C35.9239799,31.0194083 36.3424476,29.2397526 36.4121922,28.7834535 C36.4608299,28.4593115 36.439723,28.1655299 36.5213976,27.8699624 C36.6058253,27.5761808 36.5048791,27.0814847 36.4222868,26.6073265 C36.3396945,26.1322754 36.0038192,25.4116622 35.8221161,24.9839376 C35.6349069,24.5544271 35.1522008,23.564142 35.0659377,23.3971598 C34.9805923,23.2328564 34.5538655,22.4836686 34.4070347,22.2068532 C34.3198539,22.0336202 33.9601186,21.4165896 33.6077248,20.8879613 C33.2856148,20.4039806 32.1843841,18.8564927 31.5906372,18.2823238 C31.0088204,17.7108338 30.2104281,17.2598924 29.9121782,17.2268532 C29.6075043,17.1902421 29.3643159,17.2732867 29.1101152,17.4759871 C28.7990175,17.7286929 28.2575791,18.7913072 28.0566045,19.1725982 C27.8565476,19.557461 27.4252322,20.3512964 27.4252322,20.3512964 C27.4252322,20.3512964 27.2609653,20.6120387 26.9076538,20.7254438 C26.5525069,20.8388489 26.051447,20.7772351 25.6045308,20.6307908 C25.0254671,20.4450565 24.5345017,20.2307477 23.9829687,19.957504 C23.5975379,19.7690909 22.9955318,19.3752986 22.8560426,19.4851318 C22.7037057,19.61461 22.8367711,19.8324906 22.7037057,20.35844 C22.5706403,20.8843895 22.1053704,20.988865 21.5850389,20.9468962 C21.0656251,20.9013556 20.9711028,21.3147929 20.8490497,21.6201829 C20.7233259,21.9112856 20.547129,22.1925659 20.2305252,22.2890048 C19.9230983,22.380979 19.5450091,22.4756321 19.2430883,22.4122324 C18.9420853,22.3497257 18.6007038,22.1372028 18.298783,21.9112856 C17.9986977,21.6826896 17.4067862,21.0978053 17.1406554,20.816525 C16.8708539,20.5352448 16.6524432,20.4316622 16.6524432,20.4316622 C16.6524432,20.4316622 16.4138432,20.4897041 16.0788855,20.6495428 C15.7439279,20.816525 15.1290741,21.1344164 14.7262072,21.465702 C14.3260934,21.7934158 13.9948065,22.2122109 13.9948065,22.2122109 C13.9948065,22.2122109 13.9590165,23.0739107 13.9590165,23.3587628 C13.9590165,24.0168693 13.7075688,25.3562991 13.5368781,25.9804734 C13.3735288,26.6046477 12.9073412,27.7699516 12.8073127,28.0619473 C12.7072843,28.35305 12.6210212,28.6655837 12.4328943,28.982582 C12.2502735,29.2906509 11.4142559,30.5131038 11.1472075,30.8372458 C10.8728175,31.1676385 10.146923,31.882894 10.0836022,31.9962991 C10.0239522,32.1141689 10.0184461,31.9471867 9.65228685,32.2802582 C9.2806215,32.6035073 8.5253608,32.9446154 8.22252236,32.9294352 L7.69026087,32.8490694 C7.25435706,32.6767294 6.88085632,32.4543841 6.54956943,32.1936418 C6.21277638,31.9328994 6.18157485,31.4426681 6.18157485,31.1149543 C6.18157485,30.7854546 6.26141407,30.0809145 6.33758253,29.860355 C6.43852867,29.5656805 6.38622021,29.4969231 6.25040176,29.3352986 C6.25040176,29.3352986 5.73098796,29.0227649 5.24828185,28.7004088 C4.76006959,28.3655514 3.85247197,27.6127918 3.28717356,27.055589 C2.71636899,26.4974933 1.97487367,25.4500592 1.49124987,24.5972889 C1.00670837,23.7463045 0.629536868,22.6310059 0.459763806,22.0479075 C0.348723047,21.6728671 0.214739981,20.855815 0.195468445,20.4807746 C0.16885537,20.1048413 0.208316136,19.728908 0.343216893,19.0690156 C0.480870727,18.4171598 0.917692228,17.7242281 1.23246066,17.1366649 C1.54998217,16.5491017 2.03544136,16.066014 2.3731521,15.7266918 C2.70719207,15.3855837 3.24587741,15.1060893 3.64690891,14.9560732 C4.04885811,14.80695 5.02069418,14.7087251 5.56029721,14.6747929 C5.87690103,14.6569338 6.67896403,14.80695 6.91664632,14.80695 C7.01759247,14.80695 7.71412087,15.0212587 7.94813238,15.091802 C8.1353416,15.1418074 8.53912618,15.2918236 8.92730999,15.4159441 C9.44764148,15.5757827 10.3267906,16.1740613 10.4515968,16.2651426 C10.5149175,16.313362 10.6635837,16.4267671 10.889336,16.6133943 C11.1150883,16.8027004 11.3078036,17.0045078 11.6427613,17.3170414 C11.9786366,17.6260032 12.4328943,18.2778591 12.7146258,18.6948682 C12.9715796,19.0627649 13.2872658,19.5154922 13.2872658,19.5154922 C13.2872658,19.5154922 13.689215,19.271716 14.0076542,19.1342012 C14.3068218,19.0020441 14.8133879,18.7404088 15.0464818,18.5930715 C15.2832464,18.4457343 15.5154225,18.2341044 15.3355548,17.8081657 C15.2538802,17.6242173 15.0639179,17.2384615 14.8803795,16.8741366 C14.6931703,16.5142765 14.625261,16.1687036 14.661051,15.9079613 C14.6931703,15.6597203 14.7473141,15.6106079 14.9134164,15.4829156 C15.0391402,15.3855837 15.1162264,15.3632598 15.1988187,15.3480796 C15.4667848,15.2945024 15.3493202,15.3516514 15.9366432,15.4489833 C16.3395101,15.5150619 17.58023,15.9231415 17.9803438,16.0392254 C18.382293,16.1544164 18.573173,16.2294244 19.0329368,16.4205164 C19.4091906,16.580355 19.5697868,16.1785261 19.4220383,15.8240237 C19.3541291,15.665078 19.2017922,15.4043357 19.1035991,15.1212695 C19.0549614,14.9748252 18.919143,14.7524798 18.8732584,14.5185261 C18.8181968,14.2845724 18.7576291,14.0863367 18.740193,14.0032921 C18.7209214,13.9256052 18.6493415,13.8845293 18.5933622,13.796127 C18.453873,13.5800323 18.3070423,13.1558795 18.1391046,12.7433351 C17.9775907,12.3343626 17.5178269,11.1690586 17.4040331,10.8243787 C17.2865685,10.4841635 17.0030016,9.23581496 16.9295862,8.95632061 C16.8644301,8.67861216 16.8075332,8.38125874 16.7717432,8.23749328 C16.7396239,8.08926305 16.6772209,7.54545455 16.6524432,7.19898871 C16.6276655,6.85966649 16.5570032,5.93456697 16.5459909,5.24431415 C16.5358963,4.55227542 16.5716862,3.78076385 16.6900685,3.18694997 C16.8075332,2.59938677 16.9543639,2.09754707 17.0727462,1.89931146 C17.1911285,1.70107585 17.3590662,1.14387305 17.6187731,0.905454546 C17.7628508,0.779548144 18.1840715,0.596492738 18.6493415,0.596492738 C19.1237883,0.596492738 19.5771283,0.87598709 19.8634483,0.98760624 C20.1497682,1.10547606 20.4186521,1.52516407 20.4461828,1.56445401 C20.475549,1.60106509 20.9986336,2.39668639 21.7538943,4.17723507 C22.5100727,5.95421194 22.8092403,8.81076923 22.9083511,10.0082195 C23.0111326,11.2038838 22.9432234,13.0576547 22.9276226,14.0220441 C22.9083511,14.9846477 22.7092119,16.9750403 22.7092119,17.152738 C22.7092119,17.3313287 22.6449734,17.3170414 22.6936111,17.4983109 C22.7413311,17.6777945 23.0276511,17.877816 23.1396095,17.9403228 C23.2919464,18.0296181 23.5066864,18.1278429 23.7085787,18.2314255 C23.9068002,18.3305433 24.2647002,18.4171598 24.4317202,18.4260893 C24.6308594,18.4403766 24.7097809,18.3260785 24.8400932,18.1358795 C24.9327801,17.9965788 25.0438209,17.7903066 25.1530263,17.553674 C25.3484947,17.1455944 25.7458555,16.4410543 26.1569816,16.0865519 C26.4075115,15.8704572 26.6956669,15.6240022 26.9461969,15.5275632 C27.3527345,15.3802259 27.9391399,15.2820011 28.7962644,15.2677138 C29.6478828,15.2489618 30.4756412,15.5998924 30.7766442,15.7347284 C31.078565,15.8642066 31.6089911,16.2365681 31.7273734,16.2999677 C31.8430026,16.3633674 32.3670049,16.7687682 32.7193987,17.0652286 C33.0818871,17.3741904 33.9904024,18.4341259 34.3281132,18.8243464 C34.6630708,19.2172458 35.3724469,20.2575363 35.75696,20.8879613 C36.1460615,21.5174933 36.7710099,22.4783109 37.0756837,22.9881872 C37.3234606,23.4034104 37.3675098,23.5212803 37.4436783,23.6632598 C37.4436783,23.6632598 37.647406,23.4284131 37.7749652,23.3069715 C37.8979359,23.1864228 38.0098944,22.819419 38.2172928,22.3657988 C38.428362,21.9157504 38.8367351,21.2763959 39.0386274,20.970113 C39.5002266,20.2745024 40.0471711,19.5154922 40.8666703,18.5930715 C41.5035487,17.877816 42.2578917,17.4063367 42.8259432,17.1455944 C43.3949124,16.8839591 43.8711946,16.8357397 44.2052346,16.8357397 C44.5429454,16.8357397 44.7742038,16.8696719 45.1146676,16.9536095 C45.4487076,17.0357612 45.9818868,17.3974072 46.3682352,17.7108338 C46.7545836,18.0197956 47.3786143,18.8466703 47.3786143,18.8466703 C47.3786143,18.8466703 47.6612635,18.660043 47.976032,18.3492953 C48.2394096,18.0805164 48.4532319,17.8117375 48.6734781,17.5572458 C48.8799588,17.3197203 49.1057111,17.0652286 49.3562411,16.8160947 C49.5810757,16.5955352 49.7664495,16.447305 49.9086918,16.3285422 C50.2133656,16.0865519 50.3574433,15.9954707 50.754804,15.9088542 C51.1512471,15.8302743 51.4265548,15.8436686 51.7101217,15.8901022 C51.9734993,15.9383217 52.344247,16.0535126 52.5608223,16.1240559 C52.7654677,16.1928133 53.0517877,16.2821087 53.2041246,16.391049 C53.4133584,16.5330285 53.6363576,16.8027004 53.7905299,17.0411189 C53.9951753,17.3741904 54.5127537,18.4171598 54.8137568,19.4949543 C55.1138421,20.5807854 55.2551667,21.5273158 55.2982983,21.9291447 C55.3340883,22.2014954 55.3726313,22.2765035 55.8369836,22.5006348 C56.3031713,22.7140506 56.5738905,22.8819258 56.8115727,23.1185584 C57.0419135,23.3516192 57.2382996,23.7713072 57.2226989,23.8998924 C57.2034273,24.0311565 56.4600966,24.0695535 56.0875136,24.118666" id="path6492"></path>
                                </g>
                            </g>
                        </g>
                    </g>
                </g>
            </g>
        </g>
    </g>
</svg>