<?xml version="1.0" encoding="UTF-8" ?>
<!DOCTYPE svg PUBLIC "-//W3C//DTD SVG 1.1//EN" "http://www.w3.org/Graphics/SVG/1.1/DTD/svg11.dtd">
<svg width="756pt" height="878pt" viewBox="0 0 756 878" version="1.1" xmlns="http://www.w3.org/2000/svg">
<g id="#fbfdffff">
<path fill="#fbfdff" opacity="1.00" d=" M 352.04 127.91 C 378.31 125.32 404.67 127.87 430.93 129.26 C 473.57 136.13 515.52 148.90 553.59 169.52 C 570.42 178.49 586.70 188.54 601.83 200.17 C 609.74 205.83 617.35 211.88 624.55 218.42 C 628.53 222.06 633.06 225.23 636.28 229.62 C 637.16 230.61 635.98 231.64 635.44 232.42 C 619.78 250.71 601.32 266.37 585.49 284.49 C 574.61 295.10 564.28 306.27 553.18 316.65 C 542.72 308.91 533.35 299.71 522.47 292.49 C 505.49 280.58 487.18 270.50 467.74 263.22 C 455.12 258.63 442.23 254.61 429.09 251.82 C 411.10 249.61 393.22 245.55 375.00 246.06 C 361.49 245.84 348.33 249.31 334.98 250.81 C 325.46 251.85 316.15 254.27 306.98 256.94 C 270.28 267.72 236.15 287.12 208.03 313.04 C 205.18 316.75 199.85 318.73 195.57 316.31 C 191.65 313.31 188.63 309.33 184.98 306.02 C 171.25 294.14 159.12 280.55 145.91 268.11 C 137.92 261.46 130.96 253.71 123.52 246.47 C 120.49 243.24 116.87 240.52 114.36 236.84 C 114.68 234.48 116.58 232.75 118.02 231.00 C 126.13 222.41 135.59 215.27 144.54 207.60 C 182.99 177.10 227.40 154.06 274.66 140.72 C 283.61 137.76 292.78 135.60 302.10 134.19 C 309.12 133.02 315.93 130.86 323.00 129.99 C 332.64 128.73 342.39 129.02 352.04 127.91 Z" />
<path fill="#fbfdff" opacity="1.00" d=" M 551.60 325.70 C 552.51 324.85 553.74 325.95 554.65 326.31 C 559.00 328.81 562.62 332.40 565.59 336.42 C 577.63 351.10 588.84 366.61 597.45 383.58 C 604.82 397.64 610.77 412.44 615.38 427.63 C 619.55 441.16 621.17 455.27 623.81 469.14 C 626.38 482.61 626.29 496.36 626.01 510.01 C 625.71 516.92 624.75 523.79 623.44 530.58 C 621.53 540.43 620.38 550.43 618.07 560.20 C 612.29 581.45 604.48 602.27 593.26 621.28 C 585.46 635.04 576.27 647.97 566.11 660.08 C 560.11 667.38 553.12 673.79 546.47 680.48 C 520.51 704.03 489.65 722.27 456.32 733.19 C 443.42 737.34 430.16 740.26 416.86 742.80 C 408.42 744.42 399.80 744.01 391.27 744.58 C 376.83 745.77 362.37 744.45 347.94 743.93 C 337.06 743.43 326.68 739.95 316.08 737.78 C 278.07 728.53 242.99 709.00 213.54 683.45 C 206.93 677.06 200.44 670.55 194.03 663.97 C 170.59 637.34 152.38 605.92 142.27 571.84 C 139.67 562.45 136.51 553.12 135.57 543.37 C 133.84 529.60 131.31 515.89 130.89 502.00 C 130.45 488.70 132.90 475.57 134.50 462.43 C 135.10 457.69 135.53 452.93 136.43 448.24 C 144.67 409.31 162.16 372.27 187.61 341.63 C 190.47 338.24 192.84 334.29 196.54 331.73 C 199.56 330.61 203.63 330.47 206.03 332.99 C 215.66 342.35 224.71 352.34 234.95 361.05 C 244.88 370.77 254.54 380.78 264.56 390.42 C 271.42 396.18 277.95 402.44 283.27 409.68 C 284.85 411.74 282.90 414.00 281.63 415.62 C 266.83 432.45 256.57 453.25 252.17 475.22 C 250.36 485.03 251.09 495.08 250.88 505.00 C 250.68 514.06 251.45 523.20 254.01 531.93 C 259.40 549.48 267.41 566.54 279.57 580.46 C 294.85 598.98 315.24 613.43 338.07 621.06 C 347.37 623.74 356.81 625.97 366.35 627.62 C 377.16 628.62 388.21 628.44 398.82 625.96 C 407.31 624.01 415.93 622.38 424.04 619.11 C 440.77 612.62 456.13 602.52 468.54 589.54 C 482.56 576.05 493.58 559.34 499.82 540.86 C 514.34 499.08 505.86 449.25 475.76 416.31 C 474.07 413.87 470.55 411.66 471.36 408.31 C 472.72 405.81 475.02 404.00 476.99 401.99 C 483.03 396.02 489.13 390.09 494.58 383.56 C 506.45 371.44 518.56 359.56 530.46 347.47 C 537.11 339.85 544.10 332.47 551.60 325.70 Z" />
<path fill="#fbfdff" opacity="1.00" d=" M 344.39 380.42 C 366.99 375.40 390.83 375.26 413.36 380.76 C 425.67 384.29 437.32 389.97 447.95 397.08 C 452.93 400.42 458.31 403.40 462.20 408.08 C 459.99 413.20 456.38 417.56 452.51 421.51 C 442.62 431.28 432.84 441.17 423.01 451.01 C 417.40 456.75 411.45 462.19 406.35 468.42 C 399.60 475.65 392.35 482.38 385.52 489.53 C 383.16 491.80 380.04 494.96 376.46 493.53 C 371.51 491.09 367.89 486.78 364.02 482.98 C 343.18 462.15 322.37 441.29 301.45 420.54 C 299.03 418.00 296.01 415.87 294.37 412.71 C 293.01 408.95 296.52 406.19 299.01 404.03 C 312.40 393.32 327.90 385.17 344.39 380.42 Z" />
</g>
<g id="#9e83e4ff">
<path fill="#9e83e4" opacity="1.00" d=" M 356.66 0.00 L 401.36 0.00 C 418.31 1.58 435.56 0.87 452.24 4.74 C 459.36 6.19 466.57 7.05 473.72 8.28 C 567.69 26.60 656.08 72.55 724.97 139.04 C 726.21 140.47 727.72 142.00 727.89 144.00 C 727.42 146.67 725.48 148.76 723.80 150.78 C 719.04 156.02 713.67 160.66 708.78 165.79 C 690.27 184.95 671.71 204.07 652.76 222.78 C 650.58 225.17 648.07 227.67 647.57 231.00 C 647.87 234.40 650.45 236.99 652.55 239.47 C 673.53 260.72 691.10 285.17 706.14 310.92 C 724.74 343.06 738.59 377.97 746.84 414.19 C 748.46 421.31 749.65 428.52 751.44 435.61 C 755.61 452.65 753.76 470.35 756.00 487.63 L 756.00 515.28 C 754.04 526.34 754.94 537.64 753.60 548.76 C 752.98 556.69 750.71 564.32 749.11 572.07 C 737.06 635.09 707.79 694.50 666.32 743.36 C 624.72 792.44 570.40 830.64 510.11 853.12 C 490.75 860.61 470.53 865.47 450.40 870.34 C 439.28 872.65 427.84 872.54 416.70 874.70 C 405.40 876.82 393.90 877.33 382.45 878.00 L 375.55 878.00 C 366.05 877.40 356.52 877.10 347.08 875.88 C 339.04 874.99 331.11 873.24 323.02 872.73 C 313.93 872.08 305.03 870.01 296.19 867.89 C 230.27 853.52 168.68 820.60 119.41 774.60 C 60.54 719.43 19.37 645.19 5.52 565.57 C 4.12 557.34 2.02 549.22 1.29 540.88 C 0.79 535.05 0.38 529.21 0.00 523.37 L 0.00 465.69 C 1.58 451.08 4.47 436.67 7.22 422.25 C 20.58 357.10 51.69 295.65 96.49 246.48 C 99.73 243.04 103.06 239.68 106.07 236.04 C 100.34 229.74 94.04 223.99 88.01 217.99 C 68.99 199.33 49.86 180.80 30.84 162.16 C 28.16 159.51 25.24 157.04 23.08 153.93 C 22.02 152.38 21.00 150.21 22.28 148.48 C 24.88 144.14 28.89 140.94 32.43 137.41 C 100.45 72.35 187.11 26.94 279.44 8.47 C 284.96 7.38 290.60 7.08 296.15 6.20 C 303.53 5.06 310.81 3.29 318.23 2.41 C 331.00 0.96 343.87 1.13 356.66 0.00 M 352.04 127.91 C 342.39 129.02 332.64 128.73 323.00 129.99 C 315.93 130.86 309.12 133.02 302.10 134.19 C 292.78 135.60 283.61 137.76 274.66 140.72 C 227.40 154.06 182.99 177.10 144.54 207.60 C 135.59 215.27 126.13 222.41 118.02 231.00 C 116.58 232.75 114.68 234.48 114.36 236.84 C 116.87 240.52 120.49 243.24 123.52 246.47 C 130.96 253.71 137.92 261.46 145.91 268.11 C 159.12 280.55 171.25 294.14 184.98 306.02 C 188.63 309.33 191.65 313.31 195.57 316.31 C 199.85 318.73 205.18 316.75 208.03 313.04 C 236.15 287.12 270.28 267.72 306.98 256.94 C 316.15 254.27 325.46 251.85 334.98 250.81 C 348.33 249.31 361.49 245.84 375.00 246.06 C 393.22 245.55 411.10 249.61 429.09 251.82 C 442.23 254.61 455.12 258.63 467.74 263.22 C 487.18 270.50 505.49 280.58 522.47 292.49 C 533.35 299.71 542.72 308.91 553.18 316.65 C 564.28 306.27 574.61 295.10 585.49 284.49 C 601.32 266.37 619.78 250.71 635.44 232.42 C 635.98 231.64 637.16 230.61 636.28 229.62 C 633.06 225.23 628.53 222.06 624.55 218.42 C 617.35 211.88 609.74 205.83 601.83 200.17 C 586.70 188.54 570.42 178.49 553.59 169.52 C 515.52 148.90 473.57 136.13 430.93 129.26 C 404.67 127.87 378.31 125.32 352.04 127.91 M 551.60 325.70 C 544.10 332.47 537.11 339.85 530.46 347.47 C 518.56 359.56 506.45 371.44 494.58 383.56 C 489.13 390.09 483.03 396.02 476.99 401.99 C 475.02 404.00 472.72 405.81 471.36 408.31 C 470.55 411.66 474.07 413.87 475.76 416.31 C 505.86 449.25 514.34 499.08 499.82 540.86 C 493.58 559.34 482.56 576.05 468.54 589.54 C 456.13 602.52 440.77 612.62 424.04 619.11 C 415.93 622.38 407.31 624.01 398.82 625.96 C 388.21 628.44 377.16 628.62 366.35 627.62 C 356.81 625.97 347.37 623.74 338.07 621.06 C 315.24 613.43 294.85 598.98 279.57 580.46 C 267.41 566.54 259.40 549.48 254.01 531.93 C 251.45 523.20 250.68 514.06 250.88 505.00 C 251.09 495.08 250.36 485.03 252.17 475.22 C 256.57 453.25 266.83 432.45 281.63 415.62 C 282.90 414.00 284.85 411.74 283.27 409.68 C 277.95 402.44 271.42 396.18 264.56 390.42 C 254.54 380.78 244.88 370.77 234.95 361.05 C 224.71 352.34 215.66 342.35 206.03 332.99 C 203.63 330.47 199.56 330.61 196.54 331.73 C 192.84 334.29 190.47 338.24 187.61 341.63 C 162.16 372.27 144.67 409.31 136.43 448.24 C 135.53 452.93 135.10 457.69 134.50 462.43 C 132.90 475.57 130.45 488.70 130.89 502.00 C 131.31 515.89 133.84 529.60 135.57 543.37 C 136.51 553.12 139.67 562.45 142.27 571.84 C 152.38 605.92 170.59 637.34 194.03 663.97 C 200.44 670.55 206.93 677.06 213.54 683.45 C 242.99 709.00 278.07 728.53 316.08 737.78 C 326.68 739.95 337.06 743.43 347.94 743.93 C 362.37 744.45 376.83 745.77 391.27 744.58 C 399.80 744.01 408.42 744.42 416.86 742.80 C 430.16 740.26 443.42 737.34 456.32 733.19 C 489.65 722.27 520.51 704.03 546.47 680.48 C 553.12 673.79 560.11 667.38 566.11 660.08 C 576.27 647.97 585.46 635.04 593.26 621.28 C 604.48 602.27 612.29 581.45 618.07 560.20 C 620.38 550.43 621.53 540.43 623.44 530.58 C 624.75 523.79 625.71 516.92 626.01 510.01 C 626.29 496.36 626.38 482.61 623.81 469.14 C 621.17 455.27 619.55 441.16 615.38 427.63 C 610.77 412.44 604.82 397.64 597.45 383.58 C 588.84 366.61 577.63 351.10 565.59 336.42 C 562.62 332.40 559.00 328.81 554.65 326.31 C 553.74 325.95 552.51 324.85 551.60 325.70 M 344.39 380.42 C 327.90 385.17 312.40 393.32 299.01 404.03 C 296.52 406.19 293.01 408.95 294.37 412.71 C 296.01 415.87 299.03 418.00 301.45 420.54 C 322.37 441.29 343.18 462.15 364.02 482.98 C 367.89 486.78 371.51 491.09 376.46 493.53 C 380.04 494.96 383.16 491.80 385.52 489.53 C 392.35 482.38 399.60 475.65 406.35 468.42 C 411.45 462.19 417.40 456.75 423.01 451.01 C 432.84 441.17 442.62 431.28 452.51 421.51 C 456.38 417.56 459.99 413.20 462.20 408.08 C 458.31 403.40 452.93 400.42 447.95 397.08 C 437.32 389.97 425.67 384.29 413.36 380.76 C 390.83 375.26 366.99 375.40 344.39 380.42 Z" />
</g>
</svg>
