<?xml version="1.0" encoding="utf-8"?>
<!-- Generator: Adobe Illustrator 19.0.0, SVG Export Plug-In . SVG Version: 6.00 Build 0)  -->
<svg version="1.1" id="Layer_1" xmlns="http://www.w3.org/2000/svg" xmlns:xlink="http://www.w3.org/1999/xlink" x="0px" y="0px"
	 viewBox="-918.7 660.9 363 421.3" style="enable-background:new -918.7 660.9 363 421.3;" xml:space="preserve">
<style type="text/css">
	.st0{fill:#9E83E4;}
</style>
<g id="_x23_ffffffff">
</g>
<g id="_x23_9e83e4ff">
	<path class="st0" d="M-763,661.8c19.1-1.3,38.2-1.3,57.3,0.5c6.9,1.8,14.1,2.1,21,4c42.5,9.5,82.3,30.9,113.7,61.1
		c1.1,1,2.4,2.3,1.2,3.9c-2.2,3.1-5.3,5.6-8,8.4c-9,9.3-18,18.6-27.3,27.8c-1.3,1.5-3.7,3.4-2.5,5.6c1.6,2.6,4,4.6,6.1,6.9
		c21.9,24.7,37.2,55.4,42.9,87.9c2.5,8,1.7,16.4,2.5,24.6c0.4,5,0.5,10,0.1,15c-0.9,8.5-0.1,17.3-2.7,25.5
		c-5.3,30-18.7,58.4-37.9,81.9c-25.6,31.5-62,54.1-101.7,62.6c-5.8,2-12,2-18.1,2.8c-14.8,2.9-30,2.3-44.8-0.4
		c-7.2-0.1-14.1-2.3-21.1-3.8c-35.9-9.2-68.8-29.7-92.8-57.8c-21.5-25.1-36.3-56.1-41.4-88.8c-2.5-9.9-2.1-20.1-2.2-30.2
		c0-9.2-0.2-18.5,2-27.5c5.7-36.6,23.1-71.3,49.1-97.6c-12.8-12.7-25.8-25.2-38.7-37.9c-1-1.1-2.2-2.2-2-3.8
		c0.9-1.4,2.1-2.6,3.3-3.8c33.5-32.8,76.8-55.5,122.9-64.2C-775.4,664.2-769.4,662.1-763,661.8 M-751,722.4
		c-5.5,0.6-11.2,0.2-16.7,1.6c-5.8,1.6-11.9,1.9-17.6,4c-22.7,6.2-44.2,17-62.7,31.6c-5.6,4.6-11.3,9.1-16,14.7
		c13,13.2,26.5,25.9,39.6,38.9c0.8,0,2.4-0.1,3.2-0.1c16.9-16,38.2-27.3,61-31.6c6.1-0.5,12-2,18.1-2.4c10.1-0.9,20,1.6,30,2.7
		c7.3,1.9,14.7,3.9,21.6,6.9c13.9,5.7,26.2,14.4,37.3,24.3c4.9-4.7,9.5-9.7,14.2-14.5c8.6-9.1,17.9-17.6,26-27.1
		c-14.3-14.1-31.3-25.5-49.6-33.9c-15.5-7.2-32-11.7-48.8-14.5C-724.4,722.3-737.7,721-751,722.4 M-692.9,857.4
		c1.9,2.4,3.9,4.7,5.8,7.2c14,18.6,15.4,45.6,3.9,65.7c-7.6,13.4-20.2,24-34.9,28.8c-8.2,2.2-16.7,4.4-25.3,3
		c-6.6-1.4-13.4-2.6-19.4-5.7c-15.6-7.2-27.9-21-33-37.4c-3.5-8.7-2.6-18.3-2.3-27.5c1.8-12.3,7.8-23.9,16.1-33.1
		c-4-4.9-8.8-9.1-13.3-13.5c-8.6-8.2-16.9-16.7-25.5-25c-0.9,0-2.5,0-3.4,0c-15,15.9-25,36.2-29.3,57.5c-0.7,7.7-2.4,15.3-2.3,23
		c-0.1,8.1,1.7,16,2.5,24c2.1,9.1,4.8,18,8.8,26.4c14.5,31.2,43.3,55.4,76.6,64c6,1.1,11.7,3.3,17.8,3.2c10,0.6,20.1,0.5,30.2-0.3
		c10.1-2,20.2-4.2,29.7-8.5c32.1-13.5,57.5-42,67-75.5c2.2-6.1,2.5-12.7,3.9-19c1.3-6.1,1-12.3,1-18.5c0.1-7.8-2.3-15.4-3.2-23.1
		c-4.2-17.9-12.5-34.9-24.4-48.9c-2.2-2.8-4.5-5.7-7.8-7.3C-666.7,830.6-680.1,843.8-692.9,857.4 M-753.9,843.6
		c-8.4,2.7-16.6,6.8-23,13c-1.8,1.5,0.1,3.5,1.3,4.6c12,11.6,23.8,23.5,35.7,35.2c1,0.7,2,2.2,3.4,1.6c2.9-2.1,5.1-4.9,7.6-7.3
		c9.5-9.5,18.8-19.2,28.4-28.7c1.5-1.6,2.7-3.4,3.9-5.2c-7.1-6-15.2-10.8-24.2-13.3C-731.6,841-743.1,841.1-753.9,843.6z"/>
</g>
</svg>
