<?xml version="1.0" encoding="UTF-8" ?>
<!DOCTYPE svg PUBLIC "-//W3C//DTD SVG 1.1//EN" "http://www.w3.org/Graphics/SVG/1.1/DTD/svg11.dtd">
<svg width="735pt" height="1649pt" viewBox="0 0 735 1649" version="1.1" xmlns="http://www.w3.org/2000/svg">
<g id="#c1cad0ff">
<path fill="#c1cad0" opacity="1.00" d=" M 677.91 13.44 C 691.48 10.08 705.06 6.65 718.85 4.34 C 722.94 3.60 727.39 5.65 729.40 9.31 C 731.88 13.40 731.02 19.27 727.31 22.35 C 723.92 25.60 718.83 24.85 714.71 26.45 C 706.81 27.53 699.13 29.77 691.37 31.51 C 686.64 32.48 681.96 34.67 677.05 33.83 C 673.14 33.04 670.33 29.64 669.34 25.91 C 668.18 20.30 672.14 14.20 677.91 13.44 Z" />
<path fill="#c1cad0" opacity="1.00" d=" M 517.59 78.71 C 542.20 64.46 567.73 51.75 594.06 40.97 C 599.13 39.05 605.15 41.68 607.29 46.65 C 609.27 51.88 606.93 58.54 601.42 60.41 C 575.24 71.28 549.81 83.92 525.38 98.29 C 520.53 101.35 513.81 99.41 510.90 94.58 C 509.33 91.29 509.16 87.16 511.13 84.00 C 512.46 81.40 515.18 80.10 517.59 78.71 Z" />
<path fill="#c1cad0" opacity="1.00" d=" M 441.58 130.47 C 445.71 126.69 453.17 127.06 456.50 131.73 C 460.40 136.03 459.36 143.31 454.73 146.67 C 433.90 162.99 414.17 180.70 395.34 199.28 C 392.52 201.94 390.04 205.57 385.95 206.26 C 382.45 207.13 378.93 205.61 376.26 203.41 C 372.51 199.32 372.47 192.35 376.62 188.52 C 397.11 167.92 418.75 148.45 441.58 130.47 Z" />
<path fill="#c1cad0" opacity="1.00" d=" M 318.36 254.35 C 321.76 250.08 328.43 249.61 332.75 252.74 C 337.07 256.27 338.18 263.08 334.54 267.49 C 317.75 288.66 301.95 310.60 287.16 333.21 C 285.17 336.12 283.55 339.73 280.06 341.13 C 276.78 342.67 272.94 342.07 269.82 340.42 C 265.37 337.22 263.84 330.62 266.96 325.99 C 282.99 301.34 300.06 277.36 318.36 254.35 Z" />
<path fill="#c1cad0" opacity="1.00" d=" M 222.37 401.49 C 224.87 396.57 231.43 394.67 236.29 397.13 C 241.39 399.75 243.51 406.64 240.56 411.60 C 226.98 436.82 214.38 462.56 202.59 488.66 C 200.48 494.01 194.13 495.95 188.94 494.18 C 183.90 491.83 181.17 485.51 183.53 480.35 C 195.53 453.61 208.45 427.28 222.37 401.49 Z" />
<path fill="#c1cad0" opacity="1.00" d=" M 150.04 561.16 C 151.82 555.80 158.09 553.15 163.31 554.92 C 168.76 556.78 171.75 563.35 169.46 568.66 C 159.26 595.52 149.81 622.66 141.02 650.00 C 139.53 655.61 133.28 658.36 127.89 657.03 C 122.66 655.26 119.37 649.23 121.14 643.91 C 130.00 616.07 139.70 588.48 150.04 561.16 Z" />
<path fill="#c1cad0" opacity="1.00" d=" M 108.96 719.22 L 109.14 719.37 C 111.57 721.69 115.02 723.28 116.17 726.67 C 117.56 730.43 116.19 734.38 115.16 738.04 C 108.52 762.53 102.44 787.16 96.75 811.88 C 95.84 815.55 95.51 819.81 92.46 822.46 C 89.94 824.92 86.23 825.47 82.87 824.99 C 77.58 823.62 73.90 817.91 75.25 812.54 C 81.81 783.91 88.79 755.36 96.61 727.05 C 98.09 721.92 103.95 719.05 109.00 720.26 L 108.96 719.22 Z" />
<path fill="#c1cad0" opacity="1.00" d=" M 57.45 897.93 C 58.31 892.46 64.09 888.66 69.45 889.64 C 74.98 890.64 79.07 896.36 77.81 901.92 C 72.50 930.18 67.61 958.53 63.11 986.93 C 62.59 992.75 56.74 997.00 51.03 995.95 C 45.53 995.22 41.57 989.48 42.57 984.07 C 47.03 955.28 52.01 926.56 57.45 897.93 Z" />
<path fill="#c1cad0" opacity="1.00" d=" M 30.44 1070.17 C 31.10 1064.76 36.56 1060.98 41.82 1061.42 C 47.34 1062.16 51.90 1067.37 50.93 1073.05 C 47.48 1101.65 44.17 1130.26 41.37 1158.93 C 41.32 1164.89 35.60 1169.35 29.84 1168.80 C 25.36 1168.22 21.24 1164.60 20.78 1160.01 C 20.53 1156.01 21.29 1152.05 21.59 1148.09 C 24.23 1122.08 27.11 1096.09 30.44 1070.17 Z" />
<path fill="#c1cad0" opacity="1.00" d=" M 13.28 1244.91 C 13.23 1238.93 18.89 1234.16 24.74 1234.61 C 30.15 1235.42 34.72 1240.40 33.97 1246.04 C 32.00 1274.69 30.25 1303.36 28.90 1332.05 C 29.07 1337.88 23.77 1342.78 17.98 1342.43 C 12.20 1342.29 7.42 1336.72 8.22 1330.98 C 9.44 1302.26 11.25 1273.57 13.28 1244.91 Z" />
<path fill="#c1cad0" opacity="1.00" d=" M 5.49 1416.08 C 6.75 1411.67 11.09 1408.49 15.67 1408.56 C 21.08 1408.65 26.23 1413.40 25.75 1418.99 C 25.59 1437.34 25.17 1455.70 24.99 1474.05 C 24.92 1485.04 25.16 1496.04 24.89 1507.03 C 24.67 1512.39 19.77 1516.36 14.61 1516.67 C 9.44 1516.43 4.50 1512.35 4.27 1507.01 C 4.13 1481.37 4.38 1455.73 4.87 1430.10 C 5.33 1425.43 4.47 1420.68 5.49 1416.08 Z" />
<path fill="#c1cad0" opacity="1.00" d=" M 5.99 1592.94 C 5.49 1587.42 10.47 1582.40 15.90 1582.35 C 21.29 1582.17 26.39 1586.45 26.59 1591.93 C 26.92 1598.84 26.95 1605.78 27.45 1612.70 C 27.44 1620.13 28.13 1627.55 28.27 1634.99 C 28.25 1640.78 22.51 1645.57 16.81 1644.75 C 11.90 1644.35 7.76 1640.00 7.56 1635.09 C 6.91 1621.05 6.19 1607.00 5.99 1592.94 Z" />
</g>
<g id="#ffffffff">
</g>
</svg>
